<svg width="32" height="32" viewBox="0 0 32 32" fill="none" xmlns="http://www.w3.org/2000/svg">
<path d="M14.2253 16.4722C14.6632 16.4722 15.0181 16.1173 15.0181 15.6794C15.0181 15.2416 14.6632 14.8867 14.2253 14.8867C13.7875 14.8867 13.4326 15.2416 13.4326 15.6794C13.4326 16.1173 13.7875 16.4722 14.2253 16.4722Z" fill="white"/>
<path d="M10.7273 16.4722C11.1651 16.4722 11.52 16.1173 11.52 15.6794C11.52 15.2416 11.1651 14.8867 10.7273 14.8867C10.2895 14.8867 9.93457 15.2416 9.93457 15.6794C9.93457 16.1173 10.2895 16.4722 10.7273 16.4722Z" fill="white"/>
<path d="M17.7234 16.4722C18.1612 16.4722 18.5161 16.1173 18.5161 15.6794C18.5161 15.2416 18.1612 14.8867 17.7234 14.8867C17.2856 14.8867 16.9307 15.2416 16.9307 15.6794C16.9307 16.1173 17.2856 16.4722 17.7234 16.4722Z" fill="white"/>
<path d="M14.2255 8.36328C10.1819 8.36328 6.90918 11.6433 6.90918 15.6796C6.90918 17.3815 7.49827 18.9451 8.47282 20.1887L7.54918 23.636L11.6728 22.5306C12.4728 22.8287 13.331 22.996 14.2328 22.996C18.2765 22.996 21.5492 19.716 21.5492 15.6796C21.5492 11.6433 18.2692 8.36328 14.2328 8.36328H14.2255Z" stroke="white" stroke-width="1.2" stroke-linecap="round" stroke-linejoin="round"/>
<path d="M21.7746 10.9521C24.1383 11.854 25.8183 14.1376 25.8183 16.814C25.8183 18.2758 25.3165 19.614 24.4801 20.6758L25.2728 23.6285L21.7383 22.6831C21.0546 22.9376 20.3201 23.0831 19.5492 23.0831C19.331 23.0831 19.1201 23.0685 18.9092 23.054" stroke="white" stroke-width="1.2" stroke-linecap="round" stroke-linejoin="round"/>
</svg>
