<svg width="32" height="32" viewBox="0 0 32 32" fill="none" xmlns="http://www.w3.org/2000/svg">
<g id="Icon Large / language">
<path id="Vector" d="M16.0002 24.7272C20.8202 24.7272 24.7275 20.8199 24.7275 16C24.7275 11.18 20.8202 7.27271 16.0002 7.27271C11.1803 7.27271 7.27295 11.18 7.27295 16C7.27295 20.8199 11.1803 24.7272 16.0002 24.7272Z" stroke="white" stroke-linecap="round" stroke-linejoin="round"/>
<path id="Vector_2" d="M8.36377 19.2727H23.6365" stroke="white" stroke-linecap="round" stroke-linejoin="round"/>
<path id="Vector_3" d="M8.36377 12.7273H23.6365" stroke="white" stroke-linecap="round" stroke-linejoin="round"/>
<path id="Vector_4" d="M15.9998 24.7272C17.8073 24.7272 19.2725 20.8199 19.2725 16C19.2725 11.18 17.8073 7.27271 15.9998 7.27271C14.1923 7.27271 12.7271 11.18 12.7271 16C12.7271 20.8199 14.1923 24.7272 15.9998 24.7272Z" stroke="white" stroke-linecap="round" stroke-linejoin="round"/>
</g>
</svg>
