<svg width="26" height="26" viewBox="0 0 26 26" fill="none" xmlns="http://www.w3.org/2000/svg">
<g id="Icon Small / delete">
<path id="Vector" d="M11.0938 11.8447L11.3876 16.8818" stroke="#415284" stroke-linecap="round" stroke-linejoin="round"/>
<path id="Vector_2" d="M14.7694 11.8455L14.3984 16.8756" stroke="#415284" stroke-linecap="round" stroke-linejoin="round"/>
<path id="Vector_3" d="M19.7788 8.3938H6.06641" stroke="#415284" stroke-linecap="round" stroke-linejoin="round"/>
<path id="Vector_4" d="M10.6387 8.26019L11.072 6.94284C11.1324 6.70441 11.2667 6.49123 11.4557 6.33383C11.6447 6.17644 11.8787 6.08291 12.1242 6.06665H13.7283C13.9737 6.08282 14.2076 6.1763 14.3965 6.33373C14.5854 6.49115 14.7195 6.70442 14.7796 6.94284L15.213 8.26019" stroke="#415284" stroke-linecap="round" stroke-linejoin="round"/>
<path id="Vector_5" d="M7.38672 10.1816L8.06618 18.3647C8.10225 18.7927 8.29773 19.1915 8.61393 19.4822C8.93014 19.7729 9.344 19.9342 9.77352 19.9342H16.1418C16.5739 19.9342 16.99 19.771 17.3069 19.4772C17.6238 19.1834 17.8181 18.7808 17.8508 18.35L18.4575 10.1816" stroke="#415284" stroke-linecap="round" stroke-linejoin="round"/>
</g>
</svg>
