<svg width="32" height="32" viewBox="0 0 32 32" fill="none" xmlns="http://www.w3.org/2000/svg">
<g id="Icon Small / devices">
<path id="Vector" d="M9.59051 16.636H23.4145C23.6951 16.636 23.9643 16.7475 24.1627 16.9459C24.3612 17.1443 24.4726 17.4135 24.4726 17.6941V22.4099C24.4726 22.6902 24.3613 22.9591 24.163 23.1573C23.9648 23.3556 23.6959 23.4669 23.4156 23.4669H9.59051C9.31016 23.4669 9.04129 23.3556 8.84305 23.1573C8.64482 22.9591 8.53345 22.6902 8.53345 22.4099V17.6931C8.53345 17.4127 8.64482 17.1438 8.84305 16.9456C9.04129 16.7474 9.31016 16.636 9.59051 16.636V16.636Z" stroke="white" stroke-width="1.2" stroke-miterlimit="10"/>
<path id="Vector_2" d="M21.0798 20.0434C21.0791 20.0564 21.0748 20.0689 21.0675 20.0794C21.0599 20.0903 21.0491 20.099 21.0359 20.1042C21.0226 20.1095 21.0086 20.1105 20.9958 20.1078C20.9825 20.105 20.9702 20.0983 20.9606 20.0884L20.6161 20.4259L20.9606 20.0884C20.9511 20.0788 20.9445 20.0663 20.9419 20.0526C20.9393 20.0392 20.9408 20.0254 20.9461 20.0127C20.9515 19.9998 20.9606 19.989 20.9718 19.9815C20.9821 19.9747 20.9946 19.9706 21.0079 19.9701C21.0172 19.9705 21.0261 19.9725 21.0342 19.976C21.0436 19.98 21.0517 19.9856 21.0584 19.9924C21.0653 19.9995 21.0707 20.0078 21.0744 20.0169L21.5334 19.8325L21.0798 20.0434Z" fill="white" stroke="white"/>
<path id="Vector_3" d="M21.5798 20.0513C21.5775 20.1635 21.5421 20.2725 21.4781 20.3646C21.4142 20.4567 21.3244 20.5277 21.2201 20.5691C21.1159 20.6104 21.0017 20.6202 20.892 20.5969C20.7823 20.5736 20.6819 20.5184 20.6034 20.4383C20.5249 20.3582 20.4718 20.2566 20.4508 20.1464C20.4297 20.0362 20.4417 19.9224 20.4851 19.8191C20.5286 19.7157 20.6016 19.6272 20.695 19.5651C20.7884 19.5031 20.898 19.4701 21.0102 19.4701C21.0858 19.4708 21.1605 19.4863 21.23 19.5159C21.2996 19.5455 21.3626 19.5885 21.4155 19.6425C21.4684 19.6965 21.5102 19.7604 21.5384 19.8305C21.5665 19.9007 21.5806 19.9758 21.5798 20.0513Z" stroke="white" stroke-miterlimit="10"/>
<path id="Vector_4" d="M15.0112 13.5958C15.4277 13.2295 15.9649 13.0301 16.5195 13.0359C17.0649 13.0279 17.5928 13.2281 17.9958 13.5958" stroke="white" stroke-width="1.2" stroke-miterlimit="10" stroke-linecap="round"/>
<path id="Vector_5" d="M12.9055 11.6973C13.3814 11.2227 13.9474 10.8481 14.5702 10.5955C15.1931 10.3428 15.8601 10.2174 16.5322 10.2264C17.1989 10.1902 17.8654 10.3035 18.4827 10.558C19.1 10.8125 19.6527 11.2017 20.1002 11.6973" stroke="white" stroke-width="1.2" stroke-miterlimit="10" stroke-linecap="round"/>
<path id="Vector_6" d="M10.9856 9.87424C10.9856 9.87424 12.2421 7.47309 16.5739 7.46669C20.6965 7.45923 22.0139 9.86904 22.0139 9.86904" stroke="white" stroke-width="1.2" stroke-miterlimit="10" stroke-linecap="round"/>
</g>
</svg>

