<svg width="44" height="44" viewBox="0 0 44 44" fill="none" xmlns="http://www.w3.org/2000/svg">
<g id="ic/ds/01" clip-path="url(#clip0_7922_33384)">
<g id="Clip path group">
<mask id="mask0_7922_33384" style="mask-type:luminance" maskUnits="userSpaceOnUse" x="0" y="0" width="44" height="44">
<g id="clippath">
<path id="Vector" d="M3.47079 0C1.56035 0 0 1.56035 0 3.47079V40.5292C0 42.4496 1.56035 44 3.47079 44H40.5292C42.4296 44 43.98 42.4697 44 40.5692V3.43078C43.98 1.53035 42.4296 0 40.5292 0H3.47079Z" fill="white"/>
</g>
</mask>
<g mask="url(#mask0_7922_33384)">
<path id="Vector_2" d="M44 0H0V44H44V0Z" fill="url(#paint0_linear_7922_33384)"/>
</g>
</g>
<g id="Group">
<path id="Vector_3" d="M35.2899 28.7H30.1899V27.84H35.2899C35.4399 27.84 35.5799 27.73 35.5799 27.61V12.79C35.5799 12.66 35.4499 12.56 35.2899 12.56H10.7599C10.6099 12.56 10.4699 12.67 10.4699 12.79V16.04H9.60986V12.79C9.60986 12.19 10.1199 11.7 10.7499 11.7H35.2799C35.9099 11.7 36.4199 12.19 36.4199 12.79V27.61C36.4199 28.21 35.9099 28.7 35.2799 28.7H35.2899Z" fill="white"/>
<path id="Vector_4" d="M28.1099 30.32H18.0499V29.46H28.1099C28.2499 29.46 28.3699 29.34 28.3699 29.2V18.12C28.3699 17.98 28.2499 17.86 28.1099 17.86H9.28992C9.14992 17.86 9.02992 17.98 9.02992 18.12V20.47H8.16992V18.12C8.16992 17.5 8.66992 17 9.28992 17H28.1199C28.7399 17 29.2399 17.5 29.2399 18.12V29.2C29.2399 29.82 28.7399 30.32 28.1199 30.32H28.1099Z" fill="white"/>
<path id="Vector_5" d="M8.07993 32.31C7.02993 32.31 6.17993 31.46 6.17993 30.41C6.17993 29.36 7.02993 28.51 8.07993 28.51C9.12993 28.51 9.97993 29.36 9.97993 30.41C9.97993 31.46 9.12993 32.31 8.07993 32.31ZM8.07993 29.38C7.50993 29.38 7.03993 29.85 7.03993 30.42C7.03993 30.99 7.50993 31.46 8.07993 31.46C8.64993 31.46 9.11993 30.99 9.11993 30.42C9.11993 29.85 8.64993 29.38 8.07993 29.38Z" fill="white"/>
<path id="Vector_6" d="M16.6798 30.4099H15.8198C15.8198 26.1499 12.3498 22.6799 8.08984 22.6799V21.8199C12.8298 21.8199 16.6798 25.6799 16.6798 30.4099Z" fill="white"/>
<path id="Vector_7" d="M14.6398 30.41H13.7798C13.7798 27.27 11.2298 24.72 8.08984 24.72V23.86C11.6998 23.86 14.6398 26.8 14.6398 30.41Z" fill="white"/>
<path id="Vector_8" d="M12.5898 30.4099H11.7298C11.7298 28.3999 10.0898 26.7599 8.07983 26.7599V25.8999C10.5698 25.8999 12.5898 27.9199 12.5898 30.4099Z" fill="white"/>
</g>
</g>
<defs>
<linearGradient id="paint0_linear_7922_33384" x1="22.1528" y1="5.6349" x2="22.1528" y2="48.9116" gradientUnits="userSpaceOnUse">
<stop stop-color="#00E6CC"/>
<stop offset="0.2" stop-color="#00C7B1"/>
<stop offset="1" stop-color="#007366"/>
</linearGradient>
<clipPath id="clip0_7922_33384">
<rect width="44" height="44" fill="white"/>
</clipPath>
</defs>
</svg>
