<svg width="60" height="60" viewBox="0 0 60 60" fill="none" xmlns="http://www.w3.org/2000/svg">
<g clip-path="url(#clip0_19775_38818)">
<mask id="mask0_19775_38818" style="mask-type:luminance" maskUnits="userSpaceOnUse" x="0" y="0" width="60" height="60">
<path d="M4.737 0C2.121 0 0 2.121 0 4.737V55.263C0 57.879 2.121 60 4.737 60H55.263C57.858 60 59.967 57.909 60 55.323V4.677C59.97 2.091 57.861 0 55.263 0H4.737Z" fill="white"/>
</mask>
<g mask="url(#mask0_19775_38818)">
<path d="M60 0H0V60H60V0Z" fill="url(#paint0_linear_19775_38818)"/>
</g>
<path fill-rule="evenodd" clip-rule="evenodd" d="M13.1113 17.436C13.1113 16.5722 13.8554 15.9465 14.6728 15.9465H48.1228C48.9445 15.9465 49.6843 16.5734 49.6843 17.436V37.641C49.6843 38.5047 48.9403 39.1305 48.1228 39.1305H41.1688V37.9575H48.1228C48.3794 37.9575 48.5113 37.7732 48.5113 37.641V17.436C48.5113 17.3026 48.3812 17.1195 48.1228 17.1195H14.6728C14.4163 17.1195 14.2843 17.3037 14.2843 17.436V21.867H13.1113V17.436Z" fill="white"/>
<path fill-rule="evenodd" clip-rule="evenodd" d="M11.1313 24.696C11.1313 23.8531 11.8199 23.1645 12.6628 23.1645H38.3368C39.1798 23.1645 39.8684 23.8531 39.8684 24.696V39.81C39.8684 40.6529 39.1798 41.3415 38.3368 41.3415H24.6178V40.1685H38.3368C38.5319 40.1685 38.6954 40.0051 38.6954 39.81V24.696C38.6954 24.5009 38.5319 24.3375 38.3368 24.3375H12.6628C12.4678 24.3375 12.3043 24.5009 12.3043 24.696V27.894H11.1313V24.696Z" fill="white"/>
<path fill-rule="evenodd" clip-rule="evenodd" d="M11.0221 40.0514C10.2409 40.0514 9.60757 40.6847 9.60757 41.4659C9.60757 42.2471 10.2409 42.8804 11.0221 42.8804C11.8033 42.8804 12.4366 42.2471 12.4366 41.4659C12.4366 40.6847 11.8033 40.0514 11.0221 40.0514ZM8.43457 41.4659C8.43457 40.0369 9.59303 38.8784 11.0221 38.8784C12.4511 38.8784 13.6096 40.0369 13.6096 41.4659C13.6096 42.895 12.4511 44.0534 11.0221 44.0534C9.59303 44.0534 8.43457 42.895 8.43457 41.4659Z" fill="white"/>
<path fill-rule="evenodd" clip-rule="evenodd" d="M11.022 29.7466C17.496 29.7466 22.7415 34.9953 22.7415 41.4661H21.5685C21.5685 35.6429 16.848 30.9196 11.022 30.9196V29.7466Z" fill="white"/>
<path fill-rule="evenodd" clip-rule="evenodd" d="M11.022 32.5305C15.9569 32.5305 19.9575 36.5311 19.9575 41.466H18.7845C18.7845 37.1789 15.3091 33.7035 11.022 33.7035V32.5305Z" fill="white"/>
<path fill-rule="evenodd" clip-rule="evenodd" d="M11.022 35.3145C14.4177 35.3145 17.1735 38.0668 17.1735 41.466H16.0005C16.0005 38.7151 13.7703 36.4875 11.022 36.4875V35.3145Z" fill="white"/>
</g>
<defs>
<linearGradient id="paint0_linear_19775_38818" x1="29.8943" y1="0.16995" x2="29.8943" y2="60.1604" gradientUnits="userSpaceOnUse">
<stop stop-color="#00E6CC"/>
<stop offset="0.2" stop-color="#00C7B1"/>
<stop offset="1" stop-color="#007366"/>
</linearGradient>
<clipPath id="clip0_19775_38818">
<rect width="60" height="60" fill="white"/>
</clipPath>
</defs>
</svg>
