<svg width="36" height="36" viewBox="0 0 36 36" fill="none" xmlns="http://www.w3.org/2000/svg">
<g id="ic/device/success">
<path id="Vector" d="M27.6004 17.9999C27.6004 19.8986 27.0374 21.7547 25.9825 23.3334C24.9276 24.9121 23.4283 26.1425 21.6741 26.8691C19.92 27.5957 17.9898 27.7859 16.1276 27.4155C14.2653 27.0451 12.5547 26.1307 11.2122 24.7881C9.86957 23.4455 8.95527 21.7349 8.58485 19.8727C8.21443 18.0105 8.40456 16.0802 9.13117 14.3261C9.85777 12.5719 11.0882 11.0727 12.6669 10.0178C14.2456 8.96296 16.1017 8.3999 18.0004 8.3999C20.5465 8.3999 22.9883 9.41132 24.7886 11.2117C26.589 13.012 27.6004 15.4538 27.6004 17.9999Z" fill="#E4002B"/>
<path id="Vector_2" d="M20.6668 20.6663L15.334 15.3335" stroke="white" stroke-width="1.5" stroke-miterlimit="10" stroke-linecap="round"/>
<path id="Vector_3" d="M20.6668 15.3323L15.334 20.6651" stroke="white" stroke-miterlimit="10" stroke-linecap="round"/>
</g>
</svg>
