<svg width="26" height="26" viewBox="0 0 26 26" fill="none" xmlns="http://www.w3.org/2000/svg">
<g id="Icon Small / filter">
<path id="Vector" d="M8.53147 13.0269H6.5" stroke="#415284" stroke-linecap="round" stroke-linejoin="round"/>
<path id="Vector_2" d="M19.5002 13.0269H10.9688" stroke="#415284" stroke-linecap="round" stroke-linejoin="round"/>
<path id="Vector_3" d="M15.0315 8.15186H6.5" stroke="#415284" stroke-linecap="round" stroke-linejoin="round"/>
<path id="Vector_4" d="M19.5002 8.15186H17.4688" stroke="#415284" stroke-linecap="round" stroke-linejoin="round"/>
<path id="Vector_5" d="M11.7815 17.9019H6.5" stroke="#415284" stroke-linecap="round" stroke-linejoin="round"/>
<path id="Vector_6" d="M19.5002 17.9019H14.2188" stroke="#415284" stroke-linecap="round" stroke-linejoin="round"/>
<path id="Vector_7" d="M12.9998 16.6833C13.2408 16.6833 13.4764 16.7548 13.6768 16.8887C13.8772 17.0226 14.0334 17.2129 14.1256 17.4355C14.2178 17.6582 14.242 17.9032 14.1949 18.1396C14.1479 18.376 14.0318 18.5931 13.8614 18.7635C13.691 18.9339 13.4739 19.05 13.2375 19.097C13.0011 19.144 12.7562 19.1199 12.5335 19.0276C12.3108 18.9354 12.1205 18.7793 11.9866 18.5789C11.8528 18.3785 11.7813 18.1429 11.7812 17.9019C11.7813 17.5787 11.9097 17.2688 12.1382 17.0402C12.3667 16.8117 12.6766 16.6833 12.9998 16.6833V16.6833Z" stroke="#415284" stroke-linecap="round" stroke-linejoin="round"/>
<path id="Vector_8" d="M9.74979 11.8083C9.99079 11.8083 10.2264 11.8798 10.4268 12.0137C10.6272 12.1476 10.7834 12.3379 10.8756 12.5605C10.9678 12.7832 10.992 13.0282 10.9449 13.2646C10.8979 13.501 10.7818 13.7181 10.6114 13.8885C10.441 14.0589 10.2239 14.175 9.98751 14.222C9.75114 14.269 9.50616 14.2449 9.2835 14.1526C9.06084 14.0604 8.87054 13.9043 8.73665 13.7039C8.60276 13.5035 8.53125 13.2679 8.53125 13.0269C8.53125 12.7037 8.65968 12.3938 8.8882 12.1652C9.11672 11.9367 9.42661 11.8083 9.74979 11.8083V11.8083Z" stroke="#415284" stroke-linecap="round" stroke-linejoin="round"/>
<path id="Vector_9" d="M16.2498 6.93335C16.4908 6.93335 16.7264 7.0048 16.9268 7.1387C17.1272 7.27259 17.2834 7.46289 17.3756 7.68555C17.4678 7.9082 17.492 8.15324 17.4449 8.38961C17.3979 8.62598 17.2818 8.84311 17.1114 9.01353C16.941 9.18394 16.7239 9.29998 16.4875 9.34699C16.2511 9.39401 16.0062 9.36987 15.7835 9.27764C15.5608 9.18542 15.3705 9.02925 15.2366 8.82887C15.1028 8.62848 15.0313 8.39289 15.0312 8.15189C15.0313 7.82871 15.1597 7.51877 15.3882 7.29025C15.6167 7.06173 15.9266 6.93335 16.2498 6.93335V6.93335Z" stroke="#415284" stroke-linecap="round" stroke-linejoin="round"/>
</g>
</svg>
