<svg width="60" height="60" viewBox="0 0 60 60" fill="none" xmlns="http://www.w3.org/2000/svg">
<g clip-path="url(#clip0_19775_38817)">
<mask id="mask0_19775_38817" style="mask-type:luminance" maskUnits="userSpaceOnUse" x="0" y="0" width="60" height="60">
<path d="M4.737 0C2.121 0 0 2.121 0 4.737V55.263C0 57.879 2.121 60 4.737 60H55.263C57.858 60 59.967 57.909 60 55.323V4.677C59.97 2.091 57.861 0 55.263 0H4.737Z" fill="white"/>
</mask>
<g mask="url(#mask0_19775_38817)">
<path d="M60 0H0V60H60V0Z" fill="url(#paint0_linear_19775_38817)"/>
</g>
<path d="M49.1999 15.6674H14.2874C13.0049 15.6674 11.9624 16.7099 11.9624 17.9924V24.8174H13.1774V17.9924C13.1774 17.3849 13.6724 16.8899 14.2799 16.8899H49.1924C49.7999 16.8899 50.2949 17.3849 50.2949 17.9924V40.0574C50.2949 40.6649 49.7999 41.1599 49.1924 41.1599H36.3899V42.3749H49.1924C50.4749 42.3749 51.5174 41.3324 51.5174 40.0499V17.9849C51.5174 16.7024 50.4749 15.6599 49.1924 15.6599L49.1999 15.6674Z" fill="white"/>
<path d="M25.4624 33.0824C28.2374 33.0824 30.5024 30.8249 30.5024 28.0424C30.5024 25.2599 28.2449 23.0024 25.4624 23.0024C22.6799 23.0024 20.4224 25.2599 20.4224 28.0424C20.4224 30.8249 22.6799 33.0824 25.4624 33.0824ZM25.4624 24.2249C27.5699 24.2249 29.2799 25.9349 29.2799 28.0424C29.2799 30.1499 27.5699 31.8599 25.4624 31.8599C23.3549 31.8599 21.6449 30.1499 21.6449 28.0424C21.6449 25.9349 23.3549 24.2249 25.4624 24.2249Z" fill="white"/>
<path d="M25.4622 34.7024C22.3122 34.7024 19.4997 37.2674 18.1347 41.0924C17.0472 38.6999 15.1347 37.1474 13.0122 37.1474C10.1247 37.1474 7.62718 40.0199 7.06468 43.9724C7.04218 44.1449 7.09468 44.3249 7.20718 44.4599C7.31968 44.5949 7.49218 44.6699 7.66468 44.6699H32.8797C33.0597 44.6699 33.2247 44.5949 33.3372 44.4599C33.4497 44.3249 33.5022 44.1524 33.4797 43.9724C32.7147 38.6024 29.3397 34.7024 25.4547 34.7024H25.4622ZM13.0197 38.3699C15.0672 38.3699 16.8897 40.3424 17.5722 43.1849C17.5572 43.2749 17.5422 43.3574 17.5272 43.4474H8.39968C9.03718 40.4624 10.9047 38.3699 13.0197 38.3699ZM18.8772 43.4474C18.8622 43.3499 18.8397 43.2599 18.8247 43.1624C19.7322 38.9099 22.4247 35.9174 25.4697 35.9174C28.5147 35.9174 31.3272 39.0449 32.1747 43.4474H18.8847H18.8772Z" fill="white"/>
<path d="M13.0196 35.5499C15.1121 35.5499 16.8146 33.8474 16.8146 31.7549C16.8146 29.6624 15.1121 27.9599 13.0196 27.9599C10.9271 27.9599 9.22461 29.6624 9.22461 31.7549C9.22461 33.8474 10.9271 35.5499 13.0196 35.5499ZM13.0196 29.1749C14.4446 29.1749 15.5996 30.3299 15.5996 31.7549C15.5996 33.1799 14.4446 34.3349 13.0196 34.3349C11.5946 34.3349 10.4396 33.1799 10.4396 31.7549C10.4396 30.3299 11.5946 29.1749 13.0196 29.1749Z" fill="white"/>
<path d="M42.037 30.5099H36.397V31.7249H42.037V30.5099Z" fill="white"/>
<path d="M46.237 23.7224H36.397V24.9374H46.237V23.7224Z" fill="white"/>
<path d="M46.237 27.1199H36.397V28.3349H46.237V27.1199Z" fill="white"/>
</g>
<defs>
<linearGradient id="paint0_linear_19775_38817" x1="29.8943" y1="0.16995" x2="29.8943" y2="60.1604" gradientUnits="userSpaceOnUse">
<stop stop-color="#00E6CC"/>
<stop offset="0.2" stop-color="#00C7B1"/>
<stop offset="1" stop-color="#007366"/>
</linearGradient>
<clipPath id="clip0_19775_38817">
<rect width="60" height="60" fill="white"/>
</clipPath>
</defs>
</svg>
