<svg width="24" height="24" viewBox="0 0 24 24" fill="none" xmlns="http://www.w3.org/2000/svg">
<g id="Icon Large / error">
<path id="Vector" d="M18.5455 12C18.5455 13.2946 18.1616 14.5601 17.4424 15.6365C16.7232 16.7129 15.7009 17.5518 14.5049 18.0473C13.3089 18.5427 11.9928 18.6723 10.7231 18.4197C9.4534 18.1672 8.2871 17.5438 7.3717 16.6284C6.4563 15.713 5.83292 14.5467 5.58036 13.277C5.32781 12.0073 5.45742 10.6912 5.95283 9.49517C6.44824 8.29914 7.2872 7.27691 8.3636 6.55769C9.43999 5.83847 10.7055 5.45453 12 5.45453C13.736 5.45453 15.4009 6.14417 16.6284 7.37168C17.8559 8.59919 18.5455 10.264 18.5455 12Z" fill="#444444"/>
<path id="Vector_2" d="M13.8184 13.818L10.1819 10.1815" stroke="white" stroke-width="1.333" stroke-miterlimit="10" stroke-linecap="round"/>
<path id="Vector_3" d="M13.8184 10.1815L10.1819 13.818" stroke="white" stroke-width="1.333" stroke-miterlimit="10" stroke-linecap="round"/>
</g>
</svg>
