<svg width="32" height="32" viewBox="0 0 32 32" fill="none" xmlns="http://www.w3.org/2000/svg">
<g id="Icon Large / language">
<path id="Vector" d="M15.9997 24.7272C20.8197 24.7272 24.727 20.8199 24.727 16C24.727 11.18 20.8197 7.27271 15.9997 7.27271C11.1798 7.27271 7.27246 11.18 7.27246 16C7.27246 20.8199 11.1798 24.7272 15.9997 24.7272Z" stroke="#415284" stroke-linecap="round" stroke-linejoin="round"/>
<path id="Vector_2" d="M8.36328 19.2727H23.636" stroke="#415284" stroke-linecap="round" stroke-linejoin="round"/>
<path id="Vector_3" d="M8.36328 12.7273H23.636" stroke="#415284" stroke-linecap="round" stroke-linejoin="round"/>
<path id="Vector_4" d="M15.9998 24.7272C17.8073 24.7272 19.2725 20.8199 19.2725 16C19.2725 11.18 17.8073 7.27271 15.9998 7.27271C14.1923 7.27271 12.7271 11.18 12.7271 16C12.7271 20.8199 14.1923 24.7272 15.9998 24.7272Z" stroke="#415284" stroke-linecap="round" stroke-linejoin="round"/>
</g>
</svg>
