<svg width="240" height="44" viewBox="0 0 240 44" fill="none" xmlns="http://www.w3.org/2000/svg">
<rect width="240" height="44" rx="22" fill="url(#paint0_linear_7198_31351)"/>
<path d="M104.664 28.2812C101.398 28.2812 99.3672 26.0078 99.3672 22.3672V22.3516C99.3672 18.75 101.422 16.4453 104.633 16.4453C107.234 16.4453 109.109 17.9375 109.492 20.1406L109.5 20.2188H107.5L107.477 20.1406C107.109 18.9062 106.078 18.1875 104.633 18.1875C102.664 18.1875 101.422 19.7891 101.422 22.3359V22.3516C101.422 24.9375 102.688 26.5391 104.695 26.5391C106.414 26.5391 107.586 25.4688 107.609 23.8672L107.617 23.6328H104.914V22.0938H109.594V23.5C109.594 26.4141 107.672 28.2812 104.664 28.2812ZM115.422 28.1719C112.859 28.1719 111.312 26.5 111.312 23.7344V23.7188C111.312 20.9766 112.883 19.2969 115.422 19.2969C117.969 19.2969 119.531 20.9688 119.531 23.7188V23.7344C119.531 26.5 117.977 28.1719 115.422 28.1719ZM115.422 26.5938C116.773 26.5938 117.539 25.5391 117.539 23.7422V23.7266C117.539 21.9297 116.766 20.8672 115.422 20.8672C114.07 20.8672 113.297 21.9297 113.297 23.7266V23.7422C113.297 25.5391 114.07 26.5938 115.422 26.5938ZM124.844 28.0391C122.883 28.0391 122.078 27.3828 122.078 25.7344V20.9688H120.75V19.4609H122.078V17.3672H124.055V19.4609H125.859V20.9688H124.055V25.2734C124.055 26.125 124.391 26.4844 125.203 26.4844C125.477 26.4844 125.625 26.4766 125.859 26.4531V27.9531C125.578 28.0078 125.219 28.0391 124.844 28.0391ZM133.062 18.0312C132.422 18.0312 131.898 17.5234 131.898 16.8828C131.898 16.25 132.422 15.7344 133.062 15.7344C133.695 15.7344 134.219 16.25 134.219 16.8828C134.219 17.5234 133.695 18.0312 133.062 18.0312ZM132.086 28V19.4609H134.031V28H132.086ZM139.781 28.0391C137.82 28.0391 137.016 27.3828 137.016 25.7344V20.9688H135.688V19.4609H137.016V17.3672H138.992V19.4609H140.797V20.9688H138.992V25.2734C138.992 26.125 139.328 26.4844 140.141 26.4844C140.414 26.4844 140.562 26.4766 140.797 26.4531V27.9531C140.516 28.0078 140.156 28.0391 139.781 28.0391Z" fill="white"/>
<defs>
<linearGradient id="paint0_linear_7198_31351" x1="120" y1="0" x2="120" y2="44" gradientUnits="userSpaceOnUse">
<stop stop-color="#FFC53F"/>
<stop offset="0.885417" stop-color="#E3850F"/>
</linearGradient>
</defs>
</svg>
