<svg width="60" height="60" viewBox="0 0 60 60" fill="none" xmlns="http://www.w3.org/2000/svg">
<g clip-path="url(#clip0_19775_38814)">
<mask id="mask0_19775_38814" style="mask-type:luminance" maskUnits="userSpaceOnUse" x="0" y="0" width="60" height="60">
<path d="M4.737 0C2.121 0 0 2.121 0 4.737V55.263C0 57.879 2.121 60 4.737 60H55.263C57.858 60 59.967 57.909 60 55.323V4.677C59.97 2.091 57.861 0 55.263 0H4.737Z" fill="white"/>
</mask>
<g mask="url(#mask0_19775_38814)">
<path d="M75.3089 -15.6H-15.6001V75.309H75.3089V-15.6Z" fill="url(#paint0_linear_19775_38814)"/>
</g>
<path d="M33.117 35.499C35.346 34.3619 36.876 32.0429 36.876 29.3729C36.876 25.5809 33.792 22.4969 30 22.4969C26.208 22.4969 23.124 25.5809 23.124 29.3729C23.124 32.0429 24.654 34.3589 26.883 35.499C22.89 36.813 20.001 40.5719 20.001 45C20.001 45.3449 20.28 45.624 20.625 45.624C20.97 45.624 21.249 45.3449 21.249 45C21.249 40.1759 25.173 36.249 30 36.249C34.827 36.249 38.751 40.1729 38.751 45C38.751 45.3449 39.03 45.624 39.375 45.624C39.72 45.624 39.999 45.3449 39.999 45C39.999 40.5749 37.107 36.813 33.117 35.499ZM24.378 29.3729C24.378 26.2709 26.901 23.7479 30.003 23.7479C33.105 23.7479 35.628 26.2709 35.628 29.3729C35.628 32.4749 33.105 34.9979 30.003 34.9979C26.901 34.9979 24.378 32.4749 24.378 29.3729Z" fill="white"/>
<path d="M43.596 11.2499H16.407C13.563 11.2499 11.25 13.5629 11.25 16.4069V43.5929C11.25 46.4369 13.563 48.7499 16.407 48.7499H43.596C46.44 48.7499 48.753 46.4369 48.753 43.5929V16.4069C48.753 13.5629 46.44 11.2499 43.596 11.2499ZM16.407 12.4979H43.596C45.75 12.4979 47.502 14.2499 47.502 16.4039V18.7289H12.501V16.4039C12.501 14.2499 14.253 12.4979 16.407 12.4979ZM43.596 47.4989H16.407C14.253 47.4989 12.501 45.7469 12.501 43.5929V19.9799H47.502V43.5929C47.502 45.7469 45.75 47.4989 43.596 47.4989Z" fill="white"/>
<path d="M22.7158 16.239H37.2898C37.6348 16.239 37.9138 15.96 37.9138 15.615C37.9138 15.27 37.6348 14.991 37.2898 14.991H22.7158C22.3708 14.991 22.0918 15.27 22.0918 15.615C22.0918 15.96 22.3708 16.239 22.7158 16.239Z" fill="white"/>
</g>
<defs>
<linearGradient id="paint0_linear_19775_38814" x1="29.8559" y1="-4.14298" x2="29.8559" y2="64.125" gradientUnits="userSpaceOnUse">
<stop stop-color="#54C2F0"/>
<stop offset="1" stop-color="#005BAB"/>
</linearGradient>
<clipPath id="clip0_19775_38814">
<rect width="60" height="60" fill="white"/>
</clipPath>
</defs>
</svg>
