<svg width="36" height="36" viewBox="0 0 36 36" fill="none" xmlns="http://www.w3.org/2000/svg">
<g id="ic/OAM/logo/white">
<g id="Group 3631">
<path id="Vector" d="M28.15 3.95H7.85C5.69905 3.95 3.95 5.69905 3.95 7.85V28.15C3.95 30.3009 5.69905 32.05 7.85 32.05H28.15C30.3009 32.05 32.05 30.3009 32.05 28.15V7.85C32.05 5.69905 30.3009 3.95 28.15 3.95ZM7.85 4.98333H28.15C29.7309 4.98333 31.0167 6.26907 31.0167 7.85V9.53542H4.98333V7.85C4.98333 6.26907 6.26907 4.98333 7.85 4.98333ZM28.15 31.0167H7.85C6.26907 31.0167 4.98333 29.7309 4.98333 28.15V10.5687H31.0167V28.15C31.0167 29.7309 29.7309 31.0167 28.15 31.0167Z" fill="white" stroke="white" stroke-width="0.1"/>
<path id="Vector_2" d="M12.5587 7.77606H23.4408C23.7265 7.77606 23.9575 7.54513 23.9575 7.25939C23.9575 6.97365 23.7265 6.74272 23.4408 6.74272H12.5587C12.273 6.74272 12.042 6.97365 12.042 7.25939C12.042 7.54513 12.273 7.77606 12.5587 7.77606Z" fill="white" stroke="white" stroke-width="0.1"/>
<path id="Vector_3" d="M12.8168 17.5334C12.8168 19.5047 13.9226 21.2203 15.546 22.0967C12.6029 23.1158 10.4834 25.9143 10.4834 29.2C10.4834 29.4858 10.7144 29.7167 11.0001 29.7167C11.2859 29.7167 11.5168 29.4858 11.5168 29.2C11.5168 25.6256 14.4256 22.7167 18.0001 22.7167C21.5746 22.7167 24.4834 25.6256 24.4834 29.2C24.4834 29.4858 24.7144 29.7167 25.0001 29.7167C25.2859 29.7167 25.5168 29.4858 25.5168 29.2C25.5168 25.9143 23.3973 23.1158 20.4542 22.0967C22.0777 21.2203 23.1834 19.5047 23.1834 17.5334C23.1834 14.6751 20.8584 12.35 18.0001 12.35C15.1419 12.35 12.8168 14.6751 12.8168 17.5334ZM13.8501 17.5334C13.8501 15.2451 15.7119 13.3834 18.0001 13.3834C20.2883 13.3834 22.1501 15.2451 22.1501 17.5334C22.1501 19.8216 20.2883 21.6834 18.0001 21.6834C15.7119 21.6834 13.8501 19.8216 13.8501 17.5334Z" fill="white" stroke="white" stroke-width="0.1"/>
</g>
</g>
</svg>
