<svg width="36" height="36" viewBox="0 0 36 36" fill="none" xmlns="http://www.w3.org/2000/svg">
<g id="ic/OAM/logo/blue">
<g id="Group 3631">
<path id="Vector" d="M28.15 3.9H7.85C5.67144 3.9 3.9 5.67144 3.9 7.85V28.15C3.9 30.3286 5.67144 32.1 7.85 32.1H28.15C30.3286 32.1 32.1 30.3286 32.1 28.15V7.85C32.1 5.67144 30.3286 3.9 28.15 3.9ZM7.85 5.03333H28.15C29.7033 5.03333 30.9667 6.29669 30.9667 7.85V9.48542H5.03333V7.85C5.03333 6.29669 6.29669 5.03333 7.85 5.03333ZM28.15 30.9667H7.85C6.29669 30.9667 5.03333 29.7033 5.03333 28.15V10.6187H30.9667V28.15C30.9667 29.7033 29.7033 30.9667 28.15 30.9667Z" fill="#415284" stroke="#415284" stroke-width="0.2"/>
<path id="Vector_2" d="M12.5585 7.82606H23.4405C23.7539 7.82606 24.0072 7.57274 24.0072 7.25939C24.0072 6.94604 23.7539 6.69272 23.4405 6.69272H12.5585C12.2451 6.69272 11.9918 6.94604 11.9918 7.25939C11.9918 7.57274 12.2451 7.82606 12.5585 7.82606Z" fill="#415284" stroke="#415284" stroke-width="0.2"/>
<path id="Vector_3" d="M12.7665 17.5334C12.7665 19.4841 13.8389 21.1866 15.4244 22.0866C12.5165 23.1421 10.4332 25.9315 10.4332 29.2C10.4332 29.5134 10.6865 29.7667 10.9999 29.7667C11.3132 29.7667 11.5665 29.5134 11.5665 29.2C11.5665 25.6532 14.453 22.7667 17.9999 22.7667C21.5467 22.7667 24.4332 25.6532 24.4332 29.2C24.4332 29.5134 24.6865 29.7667 24.9999 29.7667C25.3132 29.7667 25.5665 29.5134 25.5665 29.2C25.5665 25.9315 23.4832 23.1421 20.5753 22.0866C22.1608 21.1866 23.2332 19.4841 23.2332 17.5334C23.2332 14.6475 20.8857 12.3 17.9999 12.3C15.114 12.3 12.7665 14.6475 12.7665 17.5334ZM13.8999 17.5334C13.8999 15.2728 15.7393 13.4334 17.9999 13.4334C20.2605 13.4334 22.0999 15.2728 22.0999 17.5334C22.0999 19.794 20.2605 21.6334 17.9999 21.6334C15.7393 21.6334 13.8999 19.794 13.8999 17.5334Z" fill="#415284" stroke="#415284" stroke-width="0.2"/>
</g>
</g>
</svg>
