<svg width="60" height="60" viewBox="0 0 60 60" fill="none" xmlns="http://www.w3.org/2000/svg">
<g clip-path="url(#clip0_19775_38815)">
<mask id="mask0_19775_38815" style="mask-type:luminance" maskUnits="userSpaceOnUse" x="0" y="0" width="60" height="60">
<path d="M4.73289 0C2.12776 0 0 2.12727 0 4.73182V55.2545C0 57.8727 2.12776 60 4.73289 60H55.2671C57.8586 60 59.9727 57.9136 60 55.3227V4.67727C59.9727 2.08636 57.8586 0 55.2671 0H4.73289Z" fill="white"/>
</mask>
<g mask="url(#mask0_19775_38815)">
<path d="M60 0H0V60H60V0Z" fill="url(#paint0_linear_19775_38815)"/>
</g>
<path d="M21.6411 32.3591C21.6411 33.3545 21.4638 34.2682 21.1229 35.1C20.782 35.9318 20.3047 36.6545 19.7047 37.2545C19.1047 37.8545 18.382 38.3318 17.5502 38.6727C16.7184 39.0136 15.8184 39.1773 14.8366 39.1773H10.8275C9.84564 39.1773 8.94564 39.0136 8.11382 38.6727C7.282 38.3318 6.55928 37.8682 5.95928 37.2545C5.35928 36.6545 4.882 35.9318 4.52746 35.1C4.18655 34.2682 4.00928 33.3545 4.00928 32.3591V29.2364C4.00928 28.2545 4.18655 27.3409 4.52746 26.4955C4.86837 25.6636 5.34564 24.9409 5.95928 24.3409C6.55928 23.7409 7.282 23.2636 8.11382 22.9227C8.94564 22.5818 9.85928 22.4045 10.8275 22.4045H14.8366C15.8184 22.4045 16.7184 22.5818 17.5502 22.9227C18.382 23.2636 19.1047 23.7409 19.7047 24.3409C20.3047 24.9409 20.782 25.6636 21.1229 26.4955C21.4638 27.3273 21.6411 28.2409 21.6411 29.2364V32.3591ZM18.682 29.2364C18.682 28.65 18.5866 28.1182 18.4093 27.6545C18.2184 27.1773 17.9593 26.7682 17.6184 26.4409C17.2775 26.1 16.8684 25.8409 16.4047 25.65C15.9275 25.4591 15.4093 25.3773 14.8366 25.3773H10.8275C10.2547 25.3773 9.72291 25.4727 9.24564 25.65C8.76837 25.8409 8.35928 26.1 8.01837 26.4409C7.67746 26.7818 7.41837 27.1909 7.22746 27.6545C7.03655 28.1318 6.95473 28.6636 6.95473 29.2364V32.3591C6.95473 32.9454 7.05019 33.4773 7.22746 33.9409C7.41837 34.4182 7.67746 34.8273 8.01837 35.1545C8.35928 35.4955 8.76837 35.7545 9.24564 35.9455C9.72291 36.1364 10.2411 36.2182 10.8275 36.2182H14.8093C15.382 36.2182 15.9138 36.1227 16.3911 35.9455C16.8684 35.7545 17.2775 35.4955 17.6184 35.1545C17.9593 34.8136 18.2184 34.4182 18.4093 33.9409C18.6002 33.4636 18.682 32.9318 18.682 32.3591V29.2364Z" fill="white"/>
<path d="M55.4592 32.6182C55.3092 32.1546 55.1183 31.7318 54.8728 31.3773C54.6273 31.0091 54.341 30.7091 54.0273 30.45C53.7137 30.1909 53.3728 29.9727 53.0183 29.8091C52.6637 29.6455 52.3092 29.5091 51.9546 29.4273C51.6001 29.3455 51.2592 29.3046 50.9455 29.2909H46.0228C45.4637 29.2909 45.0273 29.1273 44.7137 28.7864C44.4001 28.4455 44.2364 27.9955 44.2364 27.4227C44.2364 26.85 44.4001 26.2909 44.7137 25.95C45.0273 25.6091 45.4637 25.4318 46.0228 25.4318H54.191V22.4318H46.0228C45.5455 22.4318 45.0273 22.5136 44.4819 22.6909C43.9228 22.8682 43.4183 23.1409 42.941 23.5364C42.4637 23.9318 42.0683 24.4364 41.7546 25.05C41.441 25.6636 41.2773 26.5364 41.2773 27.4364C41.2773 28.3364 41.441 29.1 41.7546 29.7273C42.0683 30.3545 42.4637 30.8591 42.941 31.2409C43.4183 31.6227 43.9228 31.9091 44.4819 32.0727C45.041 32.25 45.5455 32.3318 46.0228 32.3318H50.9319C51.2046 32.3318 51.4501 32.3727 51.6819 32.4682C51.9001 32.5636 52.091 32.6864 52.2546 32.8636C52.4046 33.0273 52.5273 33.2318 52.6092 33.4636C52.691 33.6955 52.7319 33.9546 52.7319 34.2273C52.7319 34.8 52.5683 35.3455 52.2546 35.6864C51.941 36.0273 51.5046 36.1909 50.9319 36.1909H42.3683V39.1909H50.9319C51.2455 39.1909 51.5864 39.15 51.9546 39.0818C52.3092 39 52.6637 38.8909 53.0183 38.7273C53.3728 38.5636 53.7001 38.3591 54.0273 38.1C54.3546 37.8409 54.641 37.5409 54.8864 37.1727C55.1319 36.8046 55.3228 36.3955 55.4728 35.9182C55.6228 35.4409 55.691 34.8136 55.691 34.2136C55.691 33.6136 55.6228 33.0955 55.4728 32.6182" fill="white"/>
<path d="M44.3458 20.4272C44.2231 20.2636 44.2504 20.0454 44.4004 19.9227C44.5504 19.8 44.7822 19.8272 44.9049 19.9772C44.9049 19.9909 44.9322 20.0045 44.9458 20.0318C45.0413 20.2091 44.9731 20.4272 44.8095 20.5227C44.6595 20.6045 44.4686 20.5636 44.3595 20.4272H44.3458Z" fill="white"/>
<path d="M43.3639 19.35C43.1457 19.1864 43.0912 18.8727 43.2548 18.6546C43.4184 18.4364 43.7321 18.3818 43.9503 18.5455C43.9639 18.5455 43.9912 18.5727 44.0048 18.5864C44.1957 18.7773 44.2094 19.0909 44.0048 19.2955C43.8275 19.4727 43.5548 19.5 43.3503 19.35H43.3639Z" fill="white"/>
<path d="M41.9594 18.3409C41.6458 18.2182 41.4821 17.8636 41.6049 17.55C41.7276 17.2364 42.0685 17.0727 42.3958 17.1954C42.4231 17.1954 42.4503 17.2091 42.464 17.2227C42.764 17.3864 42.8731 17.7545 42.7094 18.0545C42.5594 18.3273 42.2458 18.45 41.9594 18.3409Z" fill="white"/>
<path d="M40.1457 17.6182C39.7639 17.5773 39.4775 17.2227 39.5321 16.8409C39.573 16.4591 39.9275 16.1727 40.3093 16.2273C40.3366 16.2273 40.3503 16.2273 40.3775 16.2273C40.7593 16.3091 41.0048 16.6773 40.923 17.0591C40.8412 17.4136 40.5139 17.6454 40.1593 17.6045L40.1457 17.6182Z" fill="white"/>
<path d="M38.1137 17.4273C37.6773 17.4682 37.2955 17.1545 37.2546 16.7182C37.2137 16.2818 37.5273 15.9 37.9637 15.8591C37.9909 15.8591 38.0046 15.8591 38.0318 15.8591C38.4682 15.8591 38.8227 16.2 38.8227 16.6363C38.8227 17.0454 38.5091 17.3863 38.1137 17.4273Z" fill="white"/>
<path d="M35.6594 17.6863C35.1958 17.6863 34.814 17.3045 34.814 16.8409C34.814 16.3772 35.1958 15.9954 35.6594 15.9954C36.1231 15.9954 36.5049 16.3772 36.5049 16.8409C36.5049 17.3045 36.1231 17.6863 35.6594 17.6863Z" fill="white"/>
<path d="M35.6594 17.6863C35.1958 17.6863 34.814 17.3045 34.814 16.8409C34.814 16.3772 35.1958 15.9954 35.6594 15.9954C36.1231 15.9954 36.5049 16.3772 36.5049 16.8409C36.5049 17.3045 36.1231 17.6863 35.6594 17.6863Z" fill="white"/>
<path d="M33.532 15.4909C33.1775 15.1364 33.1775 14.5636 33.532 14.2091C33.8866 13.8545 34.4593 13.8545 34.8138 14.2091C34.8138 14.2091 34.8275 14.2227 34.8411 14.2364C35.182 14.6045 35.1548 15.1773 34.7866 15.5182C34.432 15.8454 33.8866 15.8318 33.532 15.5045V15.4909Z" fill="white"/>
<path d="M31.7594 14.1136C31.3094 13.8546 31.173 13.2818 31.4321 12.8318C31.6912 12.3818 32.2639 12.2455 32.7139 12.5046C33.1503 12.7773 33.3003 13.35 33.0276 13.7864C32.7685 14.2227 32.1957 14.3591 31.7594 14.1" fill="white"/>
<path d="M29.7001 13.2546C29.1956 13.1182 28.8956 12.5864 29.0319 12.0818C29.1683 11.5773 29.7001 11.2773 30.2047 11.4136C30.2047 11.4136 30.2047 11.4136 30.2183 11.4136C30.7228 11.5636 31.0092 12.0818 30.8728 12.6C30.7228 13.1046 30.2047 13.3909 29.7001 13.2546Z" fill="white"/>
<path d="M27.1501 13.0364C26.5911 13.0227 26.1683 12.5591 26.182 12C26.1956 11.4545 26.6592 11.0182 27.2047 11.0318C27.7638 11.0318 28.2001 11.4954 28.1865 12.0409C28.1865 12.6 27.7229 13.0364 27.1774 13.0227C27.1774 13.0227 27.1774 13.0227 27.1638 13.0227" fill="white"/>
<path d="M24.6956 13.3227C24.2047 13.4318 23.7138 13.1182 23.6047 12.6273C23.4956 12.1364 23.8093 11.6455 24.2865 11.5364C24.7774 11.4136 25.282 11.7273 25.3911 12.2182C25.5138 12.7091 25.2002 13.2136 24.7093 13.3227C24.7093 13.3227 24.7093 13.3227 24.6956 13.3227Z" fill="white"/>
<path d="M22.6504 14.1818C22.2277 14.4 21.7095 14.2227 21.4913 13.8C21.2868 13.3909 21.4368 12.8864 21.8459 12.6546C22.2686 12.4227 22.7868 12.5727 23.0186 12.9818C23.2504 13.4046 23.1004 13.9227 22.6913 14.1546C22.6913 14.1546 22.6641 14.1682 22.6504 14.1682" fill="white"/>
<path d="M20.9594 15.5318C20.6321 15.8318 20.1276 15.8182 19.8276 15.4909C19.5412 15.1909 19.5412 14.7136 19.8276 14.4C20.1276 14.0727 20.6321 14.0454 20.9594 14.3454C21.2867 14.6454 21.3139 15.15 21.0139 15.4772C21.0003 15.4909 20.9867 15.5045 20.9594 15.5318Z" fill="white"/>
<path d="M19.8546 17.3045C19.6909 17.6454 19.2682 17.7954 18.9137 17.6318C18.5864 17.4682 18.4364 17.0863 18.5727 16.7454C18.7091 16.3909 19.1182 16.2 19.4727 16.35C19.8273 16.4863 20.0182 16.8954 19.8682 17.25C19.8682 17.2636 19.8546 17.2909 19.8409 17.3045" fill="white"/>
<path d="M40.9638 24.1227C40.9638 23.1818 40.2002 22.4182 39.2592 22.4182C38.632 22.4182 38.0729 22.7591 37.7865 23.2772L31.5002 34.2136H31.4592L25.1729 23.2772C24.8729 22.7727 24.3274 22.4182 23.7002 22.4182C22.7592 22.4182 21.9956 23.1818 21.9956 24.1227V39.1772H24.9547V28.6091L30.0138 37.4591C30.3138 37.9772 30.8592 38.3182 31.4865 38.3182C32.1138 38.3182 32.6729 37.9772 32.9592 37.4591L38.0183 28.6091V39.1772H40.9774V24.1227H40.9638Z" fill="white"/>
</g>
<defs>
<linearGradient id="paint0_linear_19775_38815" x1="31.522" y1="5.83868" x2="31.522" y2="66.8873" gradientUnits="userSpaceOnUse">
<stop stop-color="#54C2F0"/>
<stop offset="1" stop-color="#005BAB"/>
</linearGradient>
<clipPath id="clip0_19775_38815">
<rect width="60" height="60" fill="white"/>
</clipPath>
</defs>
</svg>
