<svg width="44" height="44" viewBox="0 0 44 44" fill="none" xmlns="http://www.w3.org/2000/svg">
<g id="ic/oms/01" clip-path="url(#clip0_7922_33311)">
<g id="bg">
<mask id="mask0_7922_33311" style="mask-type:luminance" maskUnits="userSpaceOnUse" x="0" y="0" width="44" height="44">
<g id="clippath-1">
<path id="Vector" d="M3.47079 0C1.56035 0 0 1.56 0 3.47V40.52C0 42.44 1.56035 44 3.47079 44H40.5292C42.4296 44 43.98 42.47 44 40.57V3.43C43.98 1.53 42.4296 0 40.5292 0H3.47079Z" fill="white"/>
</g>
</mask>
<g mask="url(#mask0_7922_33311)">
<path id="Vector_2" d="M44 0H0V44H44V0Z" fill="url(#paint0_linear_7922_33311)"/>
</g>
</g>
<g id="Group">
<path id="Vector_3" d="M15.8699 23.7302C15.8699 24.4602 15.7399 25.1302 15.4899 25.7402C15.2399 26.3502 14.8899 26.8802 14.4499 27.3202C14.0099 27.7602 13.4799 28.1102 12.8699 28.3602C12.2599 28.6102 11.5999 28.7302 10.8799 28.7302H7.93994C7.21994 28.7302 6.55994 28.6102 5.94994 28.3602C5.33994 28.1102 4.80994 27.7702 4.36994 27.3202C3.92994 26.8802 3.57994 26.3502 3.31994 25.7402C3.06994 25.1302 2.93994 24.4602 2.93994 23.7302V21.4402C2.93994 20.7202 3.06994 20.0502 3.31994 19.4302C3.56994 18.8202 3.91994 18.2902 4.36994 17.8502C4.80994 17.4102 5.33994 17.0602 5.94994 16.8102C6.55994 16.5602 7.22994 16.4302 7.93994 16.4302H10.8799C11.5999 16.4302 12.2599 16.5602 12.8699 16.8102C13.4799 17.0602 14.0099 17.4102 14.4499 17.8502C14.8899 18.2902 15.2399 18.8202 15.4899 19.4302C15.7399 20.0402 15.8699 20.7102 15.8699 21.4402V23.7302ZM13.6999 21.4402C13.6999 21.0102 13.6299 20.6202 13.4999 20.2802C13.3599 19.9302 13.1699 19.6302 12.9199 19.3902C12.6699 19.1402 12.3699 18.9502 12.0299 18.8102C11.6799 18.6702 11.2999 18.6102 10.8799 18.6102H7.93994C7.51994 18.6102 7.12994 18.6802 6.77994 18.8102C6.42994 18.9502 6.12994 19.1402 5.87994 19.3902C5.62994 19.6402 5.43994 19.9402 5.29994 20.2802C5.15994 20.6302 5.09994 21.0202 5.09994 21.4402V23.7302C5.09994 24.1602 5.16994 24.5502 5.29994 24.8902C5.43994 25.2402 5.62994 25.5402 5.87994 25.7802C6.12994 26.0302 6.42994 26.2202 6.77994 26.3602C7.12994 26.5002 7.50994 26.5602 7.93994 26.5602H10.8599C11.2799 26.5602 11.6699 26.4902 12.0199 26.3602C12.3699 26.2202 12.6699 26.0302 12.9199 25.7802C13.1699 25.5302 13.3599 25.2402 13.4999 24.8902C13.6399 24.5402 13.6999 24.1502 13.6999 23.7302V21.4402Z" fill="white"/>
<path id="Vector_4" d="M40.67 23.92C40.56 23.58 40.42 23.27 40.24 23.01C40.06 22.74 39.85 22.52 39.62 22.33C39.39 22.14 39.14 21.98 38.88 21.86C38.62 21.74 38.36 21.64 38.1 21.58C37.84 21.52 37.59 21.49 37.36 21.4799H33.75C33.34 21.4799 33.02 21.36 32.79 21.11C32.56 20.86 32.44 20.53 32.44 20.11C32.44 19.69 32.56 19.28 32.79 19.03C33.02 18.78 33.34 18.65 33.75 18.65H39.74V16.45H33.75C33.4 16.45 33.02 16.5099 32.62 16.6399C32.21 16.7699 31.84 16.97 31.49 17.26C31.14 17.55 30.85 17.92 30.62 18.37C30.39 18.82 30.27 19.46 30.27 20.12C30.27 20.78 30.39 21.3399 30.62 21.7999C30.85 22.2599 31.14 22.63 31.49 22.91C31.84 23.19 32.21 23.4 32.62 23.52C33.03 23.65 33.4 23.7099 33.75 23.7099H37.35C37.55 23.7099 37.73 23.7399 37.9 23.8099C38.06 23.88 38.2 23.97 38.32 24.1C38.43 24.22 38.52 24.37 38.58 24.54C38.64 24.71 38.67 24.9 38.67 25.1C38.67 25.52 38.55 25.92 38.32 26.17C38.09 26.42 37.77 26.54 37.35 26.54H31.07V28.74H37.35C37.58 28.74 37.83 28.71 38.1 28.66C38.36 28.5999 38.62 28.5199 38.88 28.4C39.14 28.28 39.38 28.13 39.62 27.94C39.86 27.75 40.07 27.53 40.25 27.26C40.43 26.99 40.57 26.69 40.68 26.34C40.79 25.99 40.84 25.53 40.84 25.09C40.84 24.65 40.79 24.27 40.68 23.92" fill="white"/>
<path id="Vector_5" d="M32.5201 14.9801C32.4301 14.8601 32.4501 14.7001 32.5601 14.6101C32.6701 14.5201 32.8401 14.5401 32.9301 14.6501C32.9301 14.6601 32.9501 14.6701 32.9601 14.6901C33.0301 14.8201 32.9801 14.9801 32.8601 15.0501C32.7501 15.1101 32.6101 15.0801 32.5301 14.9801H32.5201Z" fill="white"/>
<path id="Vector_6" d="M31.7999 14.19C31.6399 14.07 31.5999 13.84 31.7199 13.68C31.8399 13.52 32.0699 13.48 32.2299 13.6C32.2399 13.6 32.2599 13.62 32.2699 13.63C32.4099 13.77 32.4199 14 32.2699 14.15C32.1399 14.28 31.9399 14.3 31.7899 14.19H31.7999Z" fill="white"/>
<path id="Vector_7" d="M30.77 13.4501C30.54 13.3601 30.42 13.1001 30.51 12.8701C30.6 12.6401 30.85 12.5201 31.09 12.6101C31.11 12.6101 31.13 12.6201 31.14 12.6301C31.36 12.7501 31.44 13.0201 31.32 13.2401C31.21 13.4401 30.98 13.5301 30.77 13.4501Z" fill="white"/>
<path id="Vector_8" d="M29.44 12.9202C29.16 12.8902 28.95 12.6302 28.99 12.3502C29.02 12.0702 29.28 11.8602 29.56 11.9002C29.58 11.9002 29.59 11.9002 29.61 11.9002C29.89 11.9602 30.07 12.2302 30.01 12.5102C29.95 12.7702 29.71 12.9402 29.45 12.9102L29.44 12.9202Z" fill="white"/>
<path id="Vector_9" d="M27.95 12.7801C27.63 12.8101 27.35 12.5801 27.32 12.2601C27.29 11.9401 27.52 11.6601 27.84 11.6301C27.86 11.6301 27.87 11.6301 27.89 11.6301C28.21 11.6301 28.47 11.8801 28.47 12.2001C28.47 12.5001 28.24 12.7501 27.95 12.7801Z" fill="white"/>
<path id="Vector_10" d="M26.15 12.97C25.81 12.97 25.53 12.69 25.53 12.35C25.53 12.01 25.81 11.73 26.15 11.73C26.49 11.73 26.77 12.01 26.77 12.35C26.77 12.69 26.49 12.97 26.15 12.97Z" fill="white"/>
<path id="Vector_11" d="M26.15 12.97C25.81 12.97 25.53 12.69 25.53 12.35C25.53 12.01 25.81 11.73 26.15 11.73C26.49 11.73 26.77 12.01 26.77 12.35C26.77 12.69 26.49 12.97 26.15 12.97Z" fill="white"/>
<path id="Vector_12" d="M24.59 11.3601C24.33 11.1001 24.33 10.6801 24.59 10.4201C24.85 10.1601 25.27 10.1601 25.53 10.4201C25.53 10.4201 25.54 10.4301 25.55 10.4401C25.8 10.7101 25.78 11.1301 25.51 11.3801C25.25 11.6201 24.85 11.6101 24.59 11.3701V11.3601Z" fill="white"/>
<path id="Vector_13" d="M23.2899 10.35C22.9599 10.16 22.8599 9.74005 23.0499 9.41005C23.2399 9.08005 23.6599 8.98005 23.9899 9.17005C24.3099 9.37005 24.4199 9.79005 24.2199 10.11C24.0299 10.43 23.6099 10.53 23.2899 10.34" fill="white"/>
<path id="Vector_14" d="M21.78 9.72008C21.41 9.62008 21.19 9.23008 21.29 8.86008C21.39 8.49008 21.78 8.27008 22.15 8.37008C22.15 8.37008 22.15 8.37008 22.16 8.37008C22.53 8.48008 22.74 8.86008 22.64 9.24008C22.53 9.61008 22.15 9.82008 21.78 9.72008Z" fill="white"/>
<path id="Vector_15" d="M19.9099 9.56007C19.4999 9.55007 19.1899 9.21007 19.1999 8.80007C19.2099 8.40007 19.5499 8.08007 19.9499 8.09007C20.3599 8.09007 20.6799 8.43007 20.6699 8.83007C20.6699 9.24007 20.3299 9.56007 19.9299 9.55007C19.9299 9.55007 19.9299 9.55007 19.9199 9.55007" fill="white"/>
<path id="Vector_16" d="M18.1099 9.76998C17.7499 9.84998 17.3899 9.61998 17.3099 9.25998C17.2299 8.89998 17.4599 8.53998 17.8099 8.45998C18.1699 8.36998 18.5399 8.59998 18.6199 8.95998C18.7099 9.31998 18.4799 9.68998 18.1199 9.76998C18.1199 9.76998 18.1199 9.76998 18.1099 9.76998Z" fill="white"/>
<path id="Vector_17" d="M16.6101 10.4001C16.3001 10.5601 15.92 10.4301 15.76 10.1201C15.61 9.82008 15.72 9.45008 16.02 9.28008C16.33 9.11008 16.71 9.22008 16.88 9.52008C17.05 9.83008 16.94 10.2101 16.64 10.3801C16.64 10.3801 16.6201 10.3901 16.6101 10.3901" fill="white"/>
<path id="Vector_18" d="M15.3698 11.3902C15.1298 11.6102 14.7598 11.6002 14.5398 11.3602C14.3298 11.1402 14.3298 10.7902 14.5398 10.5602C14.7598 10.3202 15.1298 10.3002 15.3698 10.5202C15.6098 10.7402 15.6298 11.1102 15.4098 11.3502C15.3998 11.3602 15.3898 11.3702 15.3698 11.3902Z" fill="white"/>
<path id="Vector_19" d="M14.5599 12.69C14.4399 12.94 14.1299 13.05 13.8699 12.93C13.6299 12.81 13.5199 12.53 13.6199 12.28C13.7199 12.02 14.0199 11.88 14.2799 11.99C14.5399 12.09 14.6799 12.39 14.5699 12.65C14.5699 12.66 14.5599 12.68 14.5499 12.69" fill="white"/>
<path id="Vector_20" d="M30.0399 17.6902C30.0399 17.0002 29.4799 16.4402 28.7899 16.4402C28.3299 16.4402 27.9199 16.6902 27.7099 17.0702L23.0999 25.0902H23.0699L18.4599 17.0702C18.2399 16.7002 17.8399 16.4402 17.3799 16.4402C16.6899 16.4402 16.1299 17.0002 16.1299 17.6902V28.7302H18.2999V20.9802L22.0099 27.4702C22.2299 27.8502 22.6299 28.1002 23.0899 28.1002C23.5499 28.1002 23.9599 27.8502 24.1699 27.4702L27.8799 20.9802V28.7302H30.0499V17.6902H30.0399Z" fill="white"/>
</g>
</g>
<defs>
<linearGradient id="paint0_linear_7922_33311" x1="23.1161" y1="4.2817" x2="23.1161" y2="49.0507" gradientUnits="userSpaceOnUse">
<stop stop-color="#54C2F0"/>
<stop offset="1" stop-color="#005BAB"/>
</linearGradient>
<clipPath id="clip0_7922_33311">
<rect width="44" height="44" fill="white"/>
</clipPath>
</defs>
</svg>
