<svg width="150" height="48" viewBox="0 0 150 48" fill="none" xmlns="http://www.w3.org/2000/svg">
<path d="M48.2101 11.55C55.3201 11.55 60.9451 17.445 59.7151 25.245C58.5301 32.76 51.4201 38.715 43.9801 38.6101C36.6901 38.5201 31.3201 32.625 32.5051 25.08C33.7201 17.28 40.8751 11.55 48.2101 11.55ZM44.5351 34.215C49.4551 34.215 54.3151 29.955 55.1251 25.08C56.0101 19.71 52.4401 15.96 47.5951 15.96C42.7501 15.96 37.9201 20.1151 37.0951 25.1551C36.2851 30.0301 39.5101 34.23 44.5351 34.23" fill="#5B6770"/>
<path d="M62.7301 21.33H66.8251L66.6001 22.74C68.5201 20.745 71.1301 20.865 71.9401 20.925C76.9501 21.33 78.6151 25.86 78.0451 29.655C77.3551 34.245 74.0551 38.25 69.0451 38.4C66.5251 38.475 65.3101 37.455 64.4401 36.48L62.8351 46.5H58.7251L62.7301 21.33ZM68.7451 34.53C70.7851 34.5 73.1251 33.225 73.8601 29.715C74.4751 26.76 73.0501 24.795 70.4401 24.795C68.1601 24.795 65.7451 26.82 65.3851 29.655C64.9351 33.21 66.8401 34.545 68.7451 34.515" fill="#5B6770"/>
<path d="M81.5548 25.215H79.8148L80.4298 21.33H82.1548L83.0248 15.885H87.1348L86.2498 21.33H88.9648L88.3498 25.215H85.6648L83.6398 37.98H79.5298L81.5548 25.215Z" fill="#5B6770"/>
<path d="M88.2751 29.58C89.0851 24.615 93.5851 20.91 98.2351 20.91C102.885 20.91 106.425 24.615 105.69 29.655C104.91 35.025 100.005 38.535 95.5651 38.43C90.6601 38.31 87.4951 34.29 88.2751 29.595M101.625 29.535C102.06 26.61 100.44 24.825 97.8451 24.78C95.8501 24.75 92.9251 26.34 92.3551 29.7C91.8601 32.655 93.6151 34.515 96.1201 34.515C98.9251 34.515 101.22 32.19 101.61 29.535" fill="#5B6770"/>
<path d="M125.28 25.5901C125.085 24.8851 124.35 24.8251 124.35 24.8251C122.43 24.5551 121.62 25.9801 121.62 25.9801C120.93 26.9551 120.63 28.6051 120.48 29.6551L119.175 37.9801H115.05L116.535 28.7251C116.865 26.4901 116.955 24.7801 115.32 24.7801C112.695 24.7801 112.14 27.8551 111.84 29.6551L110.535 37.9801H106.425L109.065 21.3151H113.175L112.995 22.5151C113.22 22.0501 114.57 20.8351 116.445 20.8951C118.95 20.9851 120 22.8151 120 22.8151C122.1 20.7601 124.815 20.8951 124.815 20.8951C127.635 20.8951 128.64 22.5001 129.045 23.3401C129.48 24.2101 129.735 25.6651 129.36 28.2601L127.83 37.9951H123.705L125.175 28.7401C125.625 26.2801 125.28 25.5901 125.28 25.5901Z" fill="#5B6770"/>
<path d="M146.505 37.98H142.41L142.665 36.6C141.015 38.16 139.17 38.43 137.535 38.4C133.95 38.34 130.275 35.01 131.205 29.535C132.075 24.435 135.915 20.91 140.49 20.91C143.685 20.91 144.825 22.74 144.825 22.74L145.05 21.33H149.13L146.505 37.98ZM140.52 24.765C137.625 24.765 135.69 27.375 135.315 29.7C134.895 32.325 136.155 34.53 138.675 34.53C141.195 34.53 143.415 32.475 143.865 29.625C144.375 26.415 142.71 24.765 140.505 24.765" fill="#5B6770"/>
<path d="M13.83 20.61C13.83 20.61 1.51496 19.26 0.884964 13.425C0.314964 8.19004 20.295 2.08504 38.625 1.56004C67.425 0.750038 83.505 9.27004 83.505 9.27004C83.505 9.27004 66.54 4.81504 43.005 6.78004C21.84 8.55004 12.285 13.335 11.13 16.365C10.275 18.615 13.845 20.64 13.845 20.64" fill="#5B6770"/>
</svg>
