<svg width="36" height="36" viewBox="0 0 36 36" fill="none" xmlns="http://www.w3.org/2000/svg">
<g clip-path="url(#clip0_25220_9494)">
<path fill-rule="evenodd" clip-rule="evenodd" d="M7.96433 5.15811C6.41477 5.15811 5.15859 6.41428 5.15859 7.96385V28.0361C5.15859 29.5857 6.41477 30.8419 7.96433 30.8419H28.0366C29.5862 30.8419 30.8423 29.5857 30.8423 28.0361V7.96385C30.8423 6.41428 29.5862 5.15811 28.0366 5.15811H7.96433ZM3.80859 7.96385C3.80859 5.66869 5.66918 3.80811 7.96433 3.80811H28.0366C30.3318 3.80811 32.1923 5.66869 32.1923 7.96385V28.0361C32.1923 30.3313 30.3318 32.1919 28.0366 32.1919H7.96433C5.66918 32.1919 3.80859 30.3313 3.80859 28.0361V7.96385Z" fill="#415284"/>
<path fill-rule="evenodd" clip-rule="evenodd" d="M14.3018 12.8344C12.7163 12.8344 11.4311 14.1196 11.4311 15.7051C11.4311 17.2905 12.7163 18.5758 14.3018 18.5758C15.8872 18.5758 17.1725 17.2905 17.1725 15.7051C17.1725 14.1196 15.8872 12.8344 14.3018 12.8344ZM10.0811 15.7051C10.0811 13.3741 11.9707 11.4844 14.3018 11.4844C16.6328 11.4844 18.5225 13.3741 18.5225 15.7051C18.5225 18.0361 16.6328 19.9258 14.3018 19.9258C11.9707 19.9258 10.0811 18.0361 10.0811 15.7051Z" fill="#415284"/>
<path fill-rule="evenodd" clip-rule="evenodd" d="M22.9853 14.4702C21.7715 14.4702 20.7875 15.4542 20.7875 16.668C20.7875 17.8818 21.7715 18.8658 22.9853 18.8658C24.1991 18.8658 25.183 17.8818 25.183 16.668C25.183 15.4542 24.1991 14.4702 22.9853 14.4702ZM19.4375 16.668C19.4375 14.7086 21.0259 13.1202 22.9853 13.1202C24.9447 13.1202 26.533 14.7086 26.533 16.668C26.533 18.6274 24.9447 20.2158 22.9853 20.2158C21.0259 20.2158 19.4375 18.6274 19.4375 16.668Z" fill="#415284"/>
<path fill-rule="evenodd" clip-rule="evenodd" d="M14.3034 21.9121C11.8072 21.9121 9.55312 24.4718 9.55312 27.9457C9.55312 28.3185 9.25092 28.6207 8.87812 28.6207C8.50533 28.6207 8.20312 28.3185 8.20312 27.9457C8.20312 24.0079 10.8082 20.5621 14.3034 20.5621C17.7987 20.5621 20.4038 24.0079 20.4038 27.9457C20.4038 28.3185 20.1015 28.6207 19.7288 28.6207C19.356 28.6207 19.0538 28.3185 19.0538 27.9457C19.0538 24.4718 16.7997 21.9121 14.3034 21.9121Z" fill="#415284"/>
<path fill-rule="evenodd" clip-rule="evenodd" d="M18.1767 23.5052C19.1136 21.7926 20.6503 20.5621 22.4909 20.5621C24.0723 20.5621 25.4356 21.475 26.3761 22.8137C27.3179 24.1544 27.8789 25.9708 27.8789 27.9457C27.8789 28.3185 27.5767 28.6207 27.2039 28.6207C26.8311 28.6207 26.5289 28.3185 26.5289 27.9457C26.5289 26.2147 26.0352 24.6769 25.2714 23.5897C24.5063 22.5007 23.5132 21.9121 22.4909 21.9121C21.3057 21.9121 20.1506 22.7098 19.3611 24.1531C19.1821 24.4801 18.772 24.6002 18.4449 24.4213C18.1179 24.2424 17.9978 23.8322 18.1767 23.5052Z" fill="#415284"/>
<path fill-rule="evenodd" clip-rule="evenodd" d="M31.5172 10.3073H4.4834V8.95728H31.5172V10.3073Z" fill="#415284"/>
<path fill-rule="evenodd" clip-rule="evenodd" d="M12.2412 7.31868C12.2412 6.94588 12.5434 6.64368 12.9162 6.64368H23.0846C23.4574 6.64368 23.7596 6.94588 23.7596 7.31868C23.7596 7.69147 23.4574 7.99368 23.0846 7.99368H12.9162C12.5434 7.99368 12.2412 7.69147 12.2412 7.31868Z" fill="#415284"/>
</g>
<defs>
<clipPath id="clip0_25220_9494">
<rect width="36" height="36" fill="white"/>
</clipPath>
</defs>
</svg>
