<svg width="26" height="26" viewBox="0 0 26 26" fill="none" xmlns="http://www.w3.org/2000/svg">
<g id="Icon Small / overflow menu">
<path id="Vector" d="M12.9999 14.3867C12.7257 14.3867 12.4576 14.3054 12.2295 14.153C12.0015 14.0007 11.8238 13.7841 11.7188 13.5307C11.6139 13.2773 11.5864 12.9985 11.6399 12.7295C11.6934 12.4605 11.8255 12.2134 12.0194 12.0195C12.2133 11.8256 12.4604 11.6935 12.7294 11.64C12.9984 11.5865 13.2772 11.614 13.5306 11.7189C13.784 11.8239 14.0006 12.0016 14.1529 12.2296C14.3053 12.4577 14.3866 12.7258 14.3866 13C14.3866 13.3678 14.2405 13.7205 13.9805 13.9806C13.7204 14.2406 13.3677 14.3867 12.9999 14.3867Z" fill="#415284"/>
<path id="Vector_2" d="M12.9999 8.83998C12.7257 8.83998 12.4576 8.75864 12.2295 8.60628C12.0015 8.45391 11.8238 8.23732 11.7188 7.98394C11.6139 7.73056 11.5864 7.45175 11.6399 7.18276C11.6934 6.91377 11.8255 6.6667 12.0194 6.47278C12.2133 6.27885 12.4604 6.1468 12.7294 6.09329C12.9984 6.03979 13.2772 6.06726 13.5306 6.17221C13.784 6.27717 14.0006 6.4549 14.1529 6.68294C14.3053 6.91097 14.3866 7.17907 14.3866 7.45333C14.3866 7.8211 14.2405 8.17378 13.9805 8.43383C13.7204 8.69388 13.3677 8.83998 12.9999 8.83998Z" fill="#415284"/>
<path id="Vector_3" d="M12.9999 19.9325C12.7257 19.9325 12.4576 19.8512 12.2295 19.6988C12.0015 19.5464 11.8238 19.3299 11.7188 19.0765C11.6139 18.8231 11.5864 18.5443 11.6399 18.2753C11.6934 18.0063 11.8255 17.7592 12.0194 17.5653C12.2133 17.3714 12.4604 17.2393 12.7294 17.1858C12.9984 17.1323 13.2772 17.1598 13.5306 17.2647C13.784 17.3697 14.0006 17.5474 14.1529 17.7754C14.3053 18.0035 14.3866 18.2716 14.3866 18.5458C14.3866 18.9136 14.2405 19.2663 13.9805 19.5264C13.7204 19.7864 13.3677 19.9325 12.9999 19.9325Z" fill="#415284"/>
</g>
</svg>
