<svg width="30" height="30" viewBox="0 0 30 30" fill="none" xmlns="http://www.w3.org/2000/svg">
<g id="Icon Small / unhide">
<path id="Vector" d="M22.8227 14.849C22.9325 14.9692 22.9954 15.1248 22.9998 15.2875C23.0042 15.4502 22.9498 15.6091 22.8467 15.735C21.9319 16.9542 20.7453 17.9432 19.3813 18.6234C18.0173 19.3036 16.5134 19.6563 14.9891 19.6533C13.4649 19.6504 11.9624 19.2921 10.601 18.6067C9.23954 17.9212 8.05679 16.9277 7.14667 15.705C7.05024 15.5854 6.9984 15.436 7.00004 15.2824C7.00168 15.1288 7.05668 14.9805 7.15565 14.863C8.11171 13.6939 9.30788 12.7439 10.6631 12.0774C12.0184 11.4109 13.501 11.0435 15.0107 11C18.9477 10.99 21.8387 13.76 22.8227 14.849Z" stroke="#415284" stroke-linecap="round" stroke-linejoin="round"/>
<path id="Vector_2" d="M17.3596 15.326C17.3594 14.8593 17.2209 14.4031 16.9614 14.0151C16.702 13.6272 16.3333 13.3249 15.9021 13.1464C15.4708 12.9679 14.9964 12.9213 14.5386 13.0125C14.0809 13.1037 13.6605 13.3285 13.3305 13.6586C13.0006 13.9887 12.7759 14.4092 12.6849 14.867C12.5939 15.3248 12.6407 15.7992 12.8194 16.2304C12.998 16.6616 13.3005 17.0301 13.6886 17.2894C14.0767 17.5486 14.5329 17.687 14.9997 17.687C15.3097 17.687 15.6166 17.626 15.903 17.5073C16.1894 17.3887 16.4496 17.2147 16.6688 16.9955C16.8879 16.7762 17.0617 16.5159 17.1803 16.2295C17.2988 15.943 17.3598 15.636 17.3596 15.326V15.326Z" stroke="#415284" stroke-miterlimit="10"/>
</g>
</svg>
