<svg width="30" height="30" viewBox="0 0 30 30" fill="none" xmlns="http://www.w3.org/2000/svg">
<g id="Icon Small / hide">
<path id="Vector" d="M20.4446 10L9.55664 20.888" stroke="#415284" stroke-linecap="round" stroke-linejoin="round"/>
<path id="Vector_2" d="M22.8227 14.9671C22.9325 15.0872 22.9954 15.2428 22.9998 15.4055C23.0042 15.5683 22.9498 15.7272 22.8467 15.8531C21.9319 17.0722 20.7453 18.0612 19.3813 18.7414C18.0173 19.4216 16.5134 19.7743 14.9891 19.7714C13.4649 19.7685 11.9624 19.4101 10.601 18.7247C9.23954 18.0393 8.05679 17.0457 7.14667 15.823C7.05024 15.7034 6.9984 15.554 7.00004 15.4004C7.00168 15.2468 7.05668 15.0985 7.15565 14.981C8.11171 13.8119 9.30788 12.862 10.6631 12.1955C12.0184 11.529 13.501 11.1616 15.0107 11.1181C18.9477 11.1081 21.8387 13.8781 22.8227 14.9671Z" stroke="#415284" stroke-linecap="round" stroke-linejoin="round"/>
<path id="Vector_3" d="M17.3596 15.4441C17.3594 14.9774 17.2209 14.5211 16.9614 14.1332C16.702 13.7452 16.3333 13.4429 15.9021 13.2645C15.4708 13.086 14.9964 13.0394 14.5386 13.1305C14.0809 13.2217 13.6605 13.4466 13.3305 13.7767C13.0006 14.1068 12.7759 14.5273 12.6849 14.985C12.5939 15.4428 12.6407 15.9173 12.8194 16.3484C12.998 16.7796 13.3005 17.1481 13.6886 17.4074C14.0767 17.6667 14.5329 17.805 14.9997 17.805C15.3097 17.805 15.6166 17.744 15.903 17.6254C16.1894 17.5067 16.4496 17.3328 16.6688 17.1135C16.8879 16.8943 17.0617 16.634 17.1803 16.3475C17.2988 16.0611 17.3598 15.7541 17.3596 15.4441V15.4441Z" stroke="#415284" stroke-miterlimit="10"/>
</g>
</svg>
