<svg width="260" height="44" viewBox="0 0 260 44" fill="none" xmlns="http://www.w3.org/2000/svg">
<rect width="260" height="44" rx="22" fill="url(#paint0_linear_7179_20449)"/>
<path d="M114.664 28.2812C111.398 28.2812 109.367 26.0078 109.367 22.3672V22.3516C109.367 18.75 111.422 16.4453 114.633 16.4453C117.234 16.4453 119.109 17.9375 119.492 20.1406L119.5 20.2188H117.5L117.477 20.1406C117.109 18.9062 116.078 18.1875 114.633 18.1875C112.664 18.1875 111.422 19.7891 111.422 22.3359V22.3516C111.422 24.9375 112.688 26.5391 114.695 26.5391C116.414 26.5391 117.586 25.4688 117.609 23.8672L117.617 23.6328H114.914V22.0938H119.594V23.5C119.594 26.4141 117.672 28.2812 114.664 28.2812ZM125.422 28.1719C122.859 28.1719 121.312 26.5 121.312 23.7344V23.7188C121.312 20.9766 122.883 19.2969 125.422 19.2969C127.969 19.2969 129.531 20.9688 129.531 23.7188V23.7344C129.531 26.5 127.977 28.1719 125.422 28.1719ZM125.422 26.5938C126.773 26.5938 127.539 25.5391 127.539 23.7422V23.7266C127.539 21.9297 126.766 20.8672 125.422 20.8672C124.07 20.8672 123.297 21.9297 123.297 23.7266V23.7422C123.297 25.5391 124.07 26.5938 125.422 26.5938ZM134.844 28.0391C132.883 28.0391 132.078 27.3828 132.078 25.7344V20.9688H130.75V19.4609H132.078V17.3672H134.055V19.4609H135.859V20.9688H134.055V25.2734C134.055 26.125 134.391 26.4844 135.203 26.4844C135.477 26.4844 135.625 26.4766 135.859 26.4531V27.9531C135.578 28.0078 135.219 28.0391 134.844 28.0391ZM143.062 18.0312C142.422 18.0312 141.898 17.5234 141.898 16.8828C141.898 16.25 142.422 15.7344 143.062 15.7344C143.695 15.7344 144.219 16.25 144.219 16.8828C144.219 17.5234 143.695 18.0312 143.062 18.0312ZM142.086 28V19.4609H144.031V28H142.086ZM149.781 28.0391C147.82 28.0391 147.016 27.3828 147.016 25.7344V20.9688H145.688V19.4609H147.016V17.3672H148.992V19.4609H150.797V20.9688H148.992V25.2734C148.992 26.125 149.328 26.4844 150.141 26.4844C150.414 26.4844 150.562 26.4766 150.797 26.4531V27.9531C150.516 28.0078 150.156 28.0391 149.781 28.0391Z" fill="white"/>
<defs>
<linearGradient id="paint0_linear_7179_20449" x1="130" y1="0" x2="130" y2="44" gradientUnits="userSpaceOnUse">
<stop stop-color="#FFC53F"/>
<stop offset="0.885417" stop-color="#E3850F"/>
</linearGradient>
</defs>
</svg>
