<svg width="92" height="83" viewBox="0 0 92 83" fill="none" xmlns="http://www.w3.org/2000/svg">
<g id="ic/trial/present/cap">
<g id="cap">
<path id="Vector" d="M69.4605 30.6973C83.8911 36.5137 88.3094 33.3519 88.3094 33.3519C94.0969 28.4458 89.8375 21.8024 89.8375 21.8024C80.9593 15.7914 69.4536 22.0039 69.4536 22.0039C69.4536 22.0039 75.6352 10.4336 69.6541 1.51779C69.6541 1.51779 63.0439 -2.76288 58.1622 3.05356C58.1622 3.05356 55.0161 7.49406 60.8036 21.9969L69.4674 30.7042L69.4605 30.6973Z" fill="#F2F2F2"/>
<path id="Vector_2" d="M88.5085 49.8401L41.7474 2.84458C41.2073 2.30181 40.3317 2.30181 39.7917 2.84458L32.976 9.6944C32.4359 10.2372 32.4359 11.1172 32.976 11.6599L79.7372 58.6554C80.2772 59.1982 81.1528 59.1982 81.6929 58.6554L88.5085 51.8056C89.0486 51.2628 89.0486 50.3829 88.5085 49.8401Z" fill="#F9A01B"/>
<path id="Vector_3" d="M69.5136 30.75L60.7422 21.9347L51.9708 30.75L60.7422 39.5654L69.5136 30.75Z" fill="#F2F2F2"/>
<path id="Vector_4" opacity="0.2" d="M87.875 32.8655C87.875 32.8655 87.6537 27.8135 70.9828 28.3833C71.7365 26.2013 71.2525 23.6787 69.517 21.9345C67.7814 20.1903 65.2784 19.7038 63.1003 20.4613C63.6673 3.70687 58.6405 3.4845 58.6405 3.4845C56.8081 8.45314 60.5489 19.412 61.2818 21.462C61.0951 21.6079 60.9153 21.7677 60.7425 21.9414L69.5101 30.753C69.6829 30.5792 69.842 30.3986 69.9872 30.2109C72.0269 30.9475 82.9311 34.707 87.875 32.8655Z" fill="black"/>
</g>
</g>
</svg>
