<svg width="22" height="22" viewBox="0 0 22 22" fill="none" xmlns="http://www.w3.org/2000/svg">
<g id="Icon Small / refresh_02">
<path id="Vector" d="M7.13489 10.7346L5.75071 12.0254L4.33398 10.6354" stroke="#415284" stroke-width="1.2" stroke-linecap="round" stroke-linejoin="round"/>
<path id="Vector_2" d="M5.79914 11.8054C5.67955 10.7215 5.90166 9.62728 6.43441 8.67578C6.96716 7.72429 7.78394 6.96304 8.77053 6.49848C9.75712 6.03392 10.8642 5.88927 11.937 6.08474C13.0099 6.28021 13.9948 6.80605 14.7541 7.58872" stroke="#415284" stroke-width="1.2" stroke-linecap="round" stroke-linejoin="round"/>
<path id="Vector_3" d="M14.8652 11.7212L16.2494 10.4303L17.666 11.8203" stroke="#415284" stroke-width="1.2" stroke-linecap="round" stroke-linejoin="round"/>
<path id="Vector_4" d="M16.1977 10.6504C16.3157 11.7203 16.1009 12.8006 15.5824 13.744C15.064 14.6873 14.2673 15.4478 13.3007 15.9217C12.3342 16.3955 11.245 16.5598 10.1817 16.3919C9.11848 16.224 8.1329 15.7323 7.35938 14.9837" stroke="#415284" stroke-width="1.2" stroke-linecap="round" stroke-linejoin="round"/>
</g>
</svg>
