<svg width="32" height="32" viewBox="0 0 32 32" fill="none" xmlns="http://www.w3.org/2000/svg">
<g id="Icon Large / service">
<path id="Vector" d="M11.6361 10.1815C11.6362 10.4692 11.551 10.7504 11.3912 10.9897C11.2314 11.2289 11.0042 11.4155 10.7384 11.5256C10.4726 11.6357 10.1801 11.6646 9.89792 11.6085C9.61573 11.5523 9.35652 11.4138 9.15308 11.2104C8.94964 11.0069 8.8111 10.7477 8.75498 10.4656C8.69887 10.1834 8.7277 9.8908 8.83784 9.625C8.94798 9.35921 9.13447 9.1321 9.37372 8.9723C9.61298 8.8125 9.89425 8.72722 10.182 8.72729C10.5676 8.72729 10.9375 8.88048 11.2102 9.1532C11.4829 9.42591 11.6361 9.79583 11.6361 10.1815Z" fill="white"/>
<path id="Vector_2" d="M11.6361 15.9996C11.6362 16.2873 11.551 16.5685 11.3912 16.8078C11.2314 17.047 11.0042 17.2336 10.7384 17.3437C10.4726 17.4538 10.1801 17.4827 9.89792 17.4266C9.61573 17.3705 9.35652 17.2319 9.15308 17.0285C8.94964 16.825 8.8111 16.5659 8.75498 16.2837C8.69887 16.0015 8.7277 15.7089 8.83784 15.4431C8.94798 15.1773 9.13447 14.9502 9.37372 14.7904C9.61298 14.6306 9.89425 14.5453 10.182 14.5454C10.5676 14.5454 10.9375 14.6986 11.2102 14.9713C11.4829 15.244 11.6361 15.6139 11.6361 15.9996Z" fill="white"/>
<path id="Vector_3" d="M11.6361 21.8179C11.6362 22.1056 11.551 22.3868 11.3912 22.626C11.2314 22.8653 11.0042 23.0518 10.7384 23.1619C10.4726 23.2721 10.1801 23.3009 9.89792 23.2448C9.61573 23.1887 9.35652 23.0502 9.15308 22.8467C8.94964 22.6433 8.8111 22.3841 8.75498 22.1019C8.69887 21.8197 8.7277 21.5272 8.83784 21.2614C8.94798 20.9956 9.13447 20.7685 9.37372 20.6087C9.61298 20.4489 9.89425 20.3636 10.182 20.3636C10.5676 20.3636 10.9375 20.5168 11.2102 20.7895C11.4829 21.0623 11.6361 21.4322 11.6361 21.8179Z" fill="white"/>
<path id="Vector_4" d="M17.4545 10.1815C17.4546 10.4692 17.3693 10.7504 17.2095 10.9897C17.0497 11.2289 16.8226 11.4155 16.5568 11.5256C16.291 11.6357 15.9985 11.6646 15.7163 11.6085C15.4341 11.5523 15.1749 11.4138 14.9714 11.2104C14.768 11.0069 14.6295 10.7477 14.5733 10.4656C14.5172 10.1834 14.5461 9.8908 14.6562 9.625C14.7663 9.35921 14.9528 9.1321 15.1921 8.9723C15.4313 8.8125 15.7126 8.72722 16.0003 8.72729C16.386 8.72729 16.7559 8.88048 17.0286 9.1532C17.3013 9.42591 17.4545 9.79583 17.4545 10.1815Z" fill="white"/>
<path id="Vector_5" d="M17.4545 15.9996C17.4546 16.2873 17.3693 16.5685 17.2095 16.8078C17.0497 17.047 16.8226 17.2336 16.5568 17.3437C16.291 17.4538 15.9985 17.4827 15.7163 17.4266C15.4341 17.3705 15.1749 17.2319 14.9714 17.0285C14.768 16.825 14.6295 16.5659 14.5733 16.2837C14.5172 16.0015 14.5461 15.7089 14.6562 15.4431C14.7663 15.1773 14.9528 14.9502 15.1921 14.7904C15.4313 14.6306 15.7126 14.5453 16.0003 14.5454C16.386 14.5454 16.7559 14.6986 17.0286 14.9713C17.3013 15.244 17.4545 15.6139 17.4545 15.9996Z" fill="white"/>
<path id="Vector_6" d="M17.4545 21.8179C17.4546 22.1056 17.3693 22.3868 17.2095 22.626C17.0497 22.8653 16.8226 23.0518 16.5568 23.1619C16.291 23.2721 15.9985 23.3009 15.7163 23.2448C15.4341 23.1887 15.1749 23.0502 14.9714 22.8467C14.768 22.6433 14.6295 22.3841 14.5733 22.1019C14.5172 21.8197 14.5461 21.5272 14.6562 21.2614C14.7663 20.9956 14.9528 20.7685 15.1921 20.6087C15.4313 20.4489 15.7126 20.3636 16.0003 20.3636C16.386 20.3636 16.7559 20.5168 17.0286 20.7895C17.3013 21.0623 17.4545 21.4322 17.4545 21.8179Z" fill="white"/>
<path id="Vector_7" d="M23.2729 10.1815C23.2729 10.4692 23.1877 10.7504 23.0279 10.9897C22.8681 11.2289 22.6409 11.4155 22.3751 11.5256C22.1093 11.6357 21.8168 11.6646 21.5346 11.6085C21.2525 11.5523 20.9932 11.4138 20.7898 11.2104C20.5864 11.0069 20.4478 10.7477 20.3917 10.4656C20.3356 10.1834 20.3644 9.8908 20.4746 9.625C20.5847 9.35921 20.7712 9.1321 21.0104 8.9723C21.2497 8.8125 21.531 8.72722 21.8187 8.72729C22.2044 8.72729 22.5742 8.88048 22.8469 9.1532C23.1196 9.42591 23.2729 9.79583 23.2729 10.1815Z" fill="white"/>
<path id="Vector_8" d="M23.2729 15.9996C23.2729 16.2873 23.1877 16.5685 23.0279 16.8078C22.8681 17.047 22.6409 17.2336 22.3751 17.3437C22.1093 17.4538 21.8168 17.4827 21.5346 17.4266C21.2525 17.3705 20.9932 17.2319 20.7898 17.0285C20.5864 16.825 20.4478 16.5659 20.3917 16.2837C20.3356 16.0015 20.3644 15.7089 20.4746 15.4431C20.5847 15.1773 20.7712 14.9502 21.0104 14.7904C21.2497 14.6306 21.531 14.5453 21.8187 14.5454C22.2044 14.5454 22.5742 14.6986 22.8469 14.9713C23.1196 15.244 23.2729 15.6139 23.2729 15.9996Z" fill="white"/>
<path id="Vector_9" d="M23.2729 21.8179C23.2729 22.1056 23.1877 22.3868 23.0279 22.626C22.8681 22.8653 22.6409 23.0518 22.3751 23.1619C22.1093 23.2721 21.8168 23.3009 21.5346 23.2448C21.2525 23.1887 20.9932 23.0502 20.7898 22.8467C20.5864 22.6433 20.4478 22.3841 20.3917 22.1019C20.3356 21.8197 20.3644 21.5272 20.4746 21.2614C20.5847 20.9956 20.7712 20.7685 21.0104 20.6087C21.2497 20.4489 21.531 20.3636 21.8187 20.3636C22.2044 20.3636 22.5742 20.5168 22.8469 20.7895C23.1196 21.0623 23.2729 21.4322 23.2729 21.8179Z" fill="white"/>
</g>
</svg>
