<svg width="32" height="32" viewBox="0 0 32 32" fill="none" xmlns="http://www.w3.org/2000/svg">
<g id="Icon Small / signin">
<path id="Vector" d="M16 7.46667C16.9145 7.46646 17.8084 7.73743 18.5688 8.24532C19.3292 8.75321 19.9219 9.47522 20.2719 10.32C20.622 11.1648 20.7136 12.0944 20.5353 12.9912C20.3569 13.8881 19.9166 14.7119 19.27 15.3585C18.6234 16.0051 17.7996 16.4454 16.9027 16.6238C16.0059 16.8021 15.0763 16.7105 14.2315 16.3604C13.3867 16.0104 12.6647 15.4177 12.1568 14.6573C11.6489 13.8969 11.378 13.003 11.3782 12.0885C11.3785 10.8628 11.8655 9.68742 12.7322 8.82071C13.5989 7.954 14.7743 7.46696 16 7.46667V7.46667Z" stroke="white" stroke-width="1.2" stroke-linecap="round" stroke-linejoin="round"/>
<path id="Vector_2" d="M7.46655 24.5333C7.46655 20.2165 11.2863 16.7221 15.9999 16.7221C18.1559 16.6692 20.2487 17.453 21.8396 18.9092C23.4304 20.3654 24.3958 22.381 24.5332 24.5333" stroke="white" stroke-width="1.2" stroke-linecap="round" stroke-linejoin="round"/>
</g>
</svg>
