<svg width="36" height="36" viewBox="0 0 36 36" fill="none" xmlns="http://www.w3.org/2000/svg">
<g id="ic/device/success">
<path id="Vector" d="M18.0004 8.3999C19.8991 8.3999 21.7552 8.96296 23.3339 10.0178C24.9126 11.0727 26.1431 12.5719 26.8697 14.3261C27.5963 16.0802 27.7863 18.0105 27.4159 19.8727C27.0455 21.7349 26.1312 23.4455 24.7886 24.7881C23.446 26.1307 21.7355 27.0451 19.8733 27.4155C18.011 27.7859 16.0808 27.5957 14.3266 26.8691C12.5725 26.1425 11.0731 24.9121 10.0183 23.3334C8.96341 21.7547 8.40039 19.8986 8.40039 17.9999C8.40039 15.4538 9.41181 13.012 11.2122 11.2117C13.0125 9.41132 15.4543 8.3999 18.0004 8.3999Z" fill="#00C7B1"/>
<path id="Vector_2" d="M14.3125 17.9098L16.9249 20.7983L21.6973 16.0259" stroke="white" stroke-width="1.5" stroke-linecap="round" stroke-linejoin="round"/>
</g>
</svg>
