<svg width="22" height="22" viewBox="0 0 22 22" fill="none" xmlns="http://www.w3.org/2000/svg">
<g id="Icon Small / import">
<path id="Vector" d="M11 12.5625V4.75" stroke="#415284" stroke-width="1.2" stroke-linecap="round" stroke-linejoin="round"/>
<path id="Vector_2" d="M8.42578 9.62244L10.9816 12.5649L13.5749 9.62244" stroke="#415284" stroke-width="1.2" stroke-linecap="round" stroke-linejoin="round"/>
<path id="Vector_3" d="M8.32168 4.75H6.35751C6.14641 4.75 5.93736 4.79149 5.74233 4.87227C5.5473 4.95306 5.37011 5.07151 5.22084 5.22078C5.07157 5.37005 4.95316 5.5473 4.87238 5.74233C4.79159 5.93736 4.75 6.14636 4.75 6.35746V15.6424C4.75 16.0688 4.91937 16.4776 5.22084 16.7791C5.5223 17.0806 5.93118 17.25 6.35751 17.25H15.6434C16.0695 17.2498 16.4782 17.0802 16.7795 16.7788C17.0808 16.4774 17.25 16.0686 17.25 15.6424V6.35746C17.2501 6.1464 17.2086 5.93736 17.1279 5.74233C17.0472 5.5473 16.9289 5.37007 16.7797 5.22078C16.6305 5.0715 16.4534 4.95317 16.2584 4.87238C16.0634 4.79158 15.8544 4.75 15.6434 4.75H13.6791" stroke="#415284" stroke-width="1.2" stroke-linecap="round" stroke-linejoin="round"/>
</g>
</svg>
