<svg width="15" height="14" viewBox="0 0 15 14" fill="none" xmlns="http://www.w3.org/2000/svg">
<g id="Group 613">
<path id="Vector" d="M9.94047 4.08485C9.94047 4.74667 9.74422 5.39363 9.37653 5.94391C9.00885 6.49419 8.48623 6.92308 7.87479 7.17635C7.26335 7.42962 6.59055 7.49588 5.94145 7.36677C5.29235 7.23765 4.6961 6.91896 4.22813 6.45098C3.76015 5.98301 3.44146 5.38677 3.31234 4.73767C3.18323 4.08856 3.2495 3.41576 3.50276 2.80432C3.75603 2.19288 4.18492 1.67027 4.7352 1.30258C5.28548 0.934894 5.93245 0.738647 6.59426 0.738647C7.48173 0.738647 8.33284 1.0912 8.96038 1.71874C9.58791 2.34627 9.94047 3.19738 9.94047 4.08485Z" stroke="#415284" stroke-width="1.2" stroke-linecap="round" stroke-linejoin="round"/>
<path id="Vector_2" d="M0.73877 12.45C0.73877 9.67857 3.36062 7.43105 6.59478 7.43105C7.40706 7.429 8.2129 7.57508 8.97278 7.86211" stroke="#415284" stroke-width="1.2" stroke-linecap="round" stroke-linejoin="round"/>
<path id="Vector_3" d="M7.98899 10.9545L13.2617 10.9545" stroke="#415284" stroke-width="1.5" stroke-linecap="round" stroke-linejoin="round"/>
<path id="Vector_4" d="M9.94216 12.6023L7.98877 10.9138L9.96604 9.30682" stroke="#415284" stroke-width="1.5" stroke-linecap="round" stroke-linejoin="round"/>
</g>
</svg>
