<svg width="22" height="22" viewBox="0 0 22 22" fill="none" xmlns="http://www.w3.org/2000/svg">
<g id="Icon Small / delete">
<path id="Vector" d="M9.38721 10.0225L9.63581 14.2846" stroke="#415284" stroke-width="1.2" stroke-linecap="round" stroke-linejoin="round"/>
<path id="Vector_2" d="M12.497 10.0232L12.1831 14.2795" stroke="#415284" stroke-width="1.2" stroke-linecap="round" stroke-linejoin="round"/>
<path id="Vector_3" d="M16.7361 7.10236H5.1333" stroke="#415284" stroke-linecap="round" stroke-linejoin="round"/>
<path id="Vector_4" d="M9.00195 6.98943L9.36862 5.87475C9.41973 5.67301 9.5334 5.49262 9.69332 5.35944C9.85325 5.22626 10.0512 5.14712 10.2589 5.13336H11.6163C11.8239 5.14705 12.0218 5.22614 12.1816 5.35935C12.3415 5.49256 12.455 5.67301 12.5058 5.87475L12.8725 6.98943" stroke="#415284" stroke-linecap="round" stroke-linejoin="round"/>
<path id="Vector_5" d="M6.25098 8.61523L6.82591 15.5394C6.85642 15.9015 7.02183 16.239 7.28939 16.485C7.55695 16.7309 7.90714 16.8674 8.27057 16.8674H13.6591C14.0247 16.8674 14.3768 16.7293 14.645 16.4807C14.9131 16.2321 15.0775 15.8915 15.1052 15.5269L15.6186 8.61523" stroke="#415284" stroke-linecap="round" stroke-linejoin="round"/>
</g>
</svg>
