<svg width="44" height="44" viewBox="0 0 44 44" fill="none" xmlns="http://www.w3.org/2000/svg">
<g id="ic/wb/01" clip-path="url(#clip0_7922_33360)">
<g id="Clip path group">
<mask id="mask0_7922_33360" style="mask-type:luminance" maskUnits="userSpaceOnUse" x="0" y="0" width="44" height="44">
<g id="clippath">
<path id="Vector" d="M3.47079 0C1.56035 0 0 1.56035 0 3.47079V40.5292C0 42.4496 1.56035 44 3.47079 44H40.5292C42.4296 44 43.98 42.4697 44 40.5692V3.43078C43.98 1.53035 42.4296 0 40.5292 0H3.47079Z" fill="white"/>
</g>
</mask>
<g mask="url(#mask0_7922_33360)">
<path id="Vector_2" d="M44 0H0V44H44V0Z" fill="url(#paint0_linear_7922_33360)"/>
</g>
</g>
<g id="Group">
<path id="Vector_3" d="M35.6501 32.3099H8.26012C7.63012 32.3099 7.12012 31.7999 7.12012 31.1699V25.9199H7.98012V31.1699C7.98012 31.3199 8.11012 31.4499 8.26012 31.4499H35.6501C35.8001 31.4499 35.9301 31.3199 35.9301 31.1699V12.8299C35.9301 12.6799 35.8001 12.5499 35.6501 12.5499H8.26012C8.11012 12.5499 7.98012 12.6799 7.98012 12.8299V15.7999H7.12012V12.8299C7.12012 12.1999 7.63012 11.6899 8.26012 11.6899H35.6501C36.2801 11.6899 36.7901 12.1999 36.7901 12.8299V31.1699C36.7901 31.7999 36.2801 32.3099 35.6501 32.3099Z" fill="white"/>
<path id="Vector_4" d="M13.4401 29.39C13.3701 29.39 13.3101 29.37 13.2401 29.34L10.6701 28.02C10.6001 27.99 10.5401 27.93 10.5001 27.87L5.0401 19.32C4.7801 18.91 4.9001 18.37 5.3101 18.11L7.0201 17.02C7.4301 16.76 7.97009 16.88 8.23009 17.29L13.6901 25.84C13.7301 25.9 13.7501 25.98 13.7601 26.05L13.8701 28.94C13.8701 29.09 13.8001 29.24 13.6701 29.32C13.6001 29.36 13.5201 29.39 13.4401 29.39ZM11.1701 27.31L12.9901 28.24L12.9101 26.2L7.5101 17.74H7.49009L5.7801 18.83V18.85L11.1801 27.31H11.1701Z" fill="white"/>
<path id="Vector_5" d="M27.9501 29.3999C27.7501 29.3999 27.5401 29.3999 27.3101 29.3899C25.7601 29.3299 24.3501 28.7899 22.9801 28.2699C22.3901 28.0499 21.8401 27.8299 21.2801 27.6599C20.2901 27.3599 16.8301 26.5799 13.7101 29.2899L13.1501 28.6399C16.6001 25.6399 20.4401 26.4999 21.5301 26.8399C22.1101 27.0199 22.7101 27.2499 23.2801 27.4599C24.5801 27.9599 25.9201 28.4699 27.3301 28.5199C29.4701 28.5999 30.5101 28.3199 33.9001 26.7799L34.2601 27.5599C31.1001 28.9999 29.8401 29.3799 27.9401 29.3799L27.9501 29.3999Z" fill="white"/>
</g>
</g>
<defs>
<linearGradient id="paint0_linear_7922_33360" x1="22.4331" y1="5.9988" x2="22.4331" y2="49.2755" gradientUnits="userSpaceOnUse">
<stop stop-color="#00E6CC"/>
<stop offset="0.2" stop-color="#00C7B1"/>
<stop offset="1" stop-color="#007366"/>
</linearGradient>
<clipPath id="clip0_7922_33360">
<rect width="44" height="44" fill="white"/>
</clipPath>
</defs>
</svg>
