<svg width="60" height="60" viewBox="0 0 60 60" fill="none" xmlns="http://www.w3.org/2000/svg">
<mask id="mask0_19775_38816" style="mask-type:luminance" maskUnits="userSpaceOnUse" x="0" y="0" width="60" height="60">
<path d="M4.737 0C2.121 0 0 2.121 0 4.737V55.263C0 57.879 2.121 60 4.737 60H55.263C57.858 60 59.967 57.909 60 55.323V4.677C59.97 2.091 57.861 0 55.263 0H4.737Z" fill="white"/>
</mask>
<g mask="url(#mask0_19775_38816)">
<path d="M60 0H0V60H60V0Z" fill="url(#paint0_linear_19775_38816)"/>
</g>
<path d="M48.6179 15.945H11.2649C10.4099 15.945 9.71387 16.641 9.71387 17.496V21.546H10.8869V17.496C10.8869 17.289 11.0609 17.115 11.2679 17.115H48.6209C48.8279 17.115 49.0019 17.289 49.0019 17.496V42.504C49.0019 42.711 48.8279 42.885 48.6209 42.885H11.2679C11.0609 42.885 10.8869 42.711 10.8869 42.504V35.343H9.71387V42.504C9.71387 43.359 10.4099 44.055 11.2649 44.055H48.6149C49.4699 44.055 50.1659 43.359 50.1659 42.504V17.496C50.1659 16.641 49.4699 15.945 48.6149 15.945H48.6179Z" fill="white"/>
<path d="M14.5531 38.223L18.0631 40.02C18.1471 40.062 18.2401 40.083 18.3301 40.083C18.4411 40.083 18.5491 40.053 18.6451 39.99C18.6691 39.975 18.6901 39.954 18.7111 39.936H18.7141C22.9651 36.246 27.6841 37.308 29.0311 37.719C29.7871 37.95 30.5431 38.241 31.3441 38.544C33.2041 39.255 35.1271 39.987 37.2451 40.065C37.5481 40.077 37.8331 40.083 38.1121 40.083C40.6951 40.083 42.4141 39.555 46.7281 37.596L46.2421 36.528C41.6221 38.625 40.2001 39.003 37.2871 38.895C35.3611 38.823 33.5311 38.124 31.7611 37.449C30.9781 37.149 30.1681 36.843 29.3731 36.597C27.9781 36.168 23.3161 35.115 18.8701 38.319L18.7621 35.532C18.7591 35.427 18.7261 35.328 18.6691 35.241L11.2201 23.577C11.0491 23.31 10.7821 23.124 10.4701 23.055C10.1581 22.986 9.83707 23.043 9.57007 23.214L7.23907 24.702C6.97207 24.873 6.78607 25.14 6.71707 25.452C6.64807 25.764 6.70507 26.085 6.87607 26.352L14.3251 38.016C14.3821 38.103 14.4601 38.175 14.5531 38.223ZM7.87207 25.692L10.2031 24.204C10.2031 24.204 10.2271 24.204 10.2331 24.21L17.5951 35.739L17.7031 38.52L15.2251 37.251L7.86307 25.722C7.86307 25.722 7.86307 25.698 7.86907 25.692H7.87207Z" fill="white"/>
<defs>
<linearGradient id="paint0_linear_19775_38816" x1="29.8943" y1="0.16995" x2="29.8943" y2="60.1604" gradientUnits="userSpaceOnUse">
<stop stop-color="#00E6CC"/>
<stop offset="0.2" stop-color="#00C7B1"/>
<stop offset="1" stop-color="#007366"/>
</linearGradient>
</defs>
</svg>
